<svg width="780" height="1024" viewBox="0 0 780 1024" fill="none" xmlns="http://www.w3.org/2000/svg">
<g clip-path="url(#clip0_14_9385)">
<path d="M64.8818 891.884L129.936 854.329L194.99 891.884L129.936 929.44L64.8818 891.884Z" fill="#E3EFFB"/>
<path d="M129.936 929.44L194.99 891.884L129.936 854.329L64.8818 891.884L129.936 929.44ZM129.936 929.44L64.8832 891.882M195 891.882L129.947 929.44" stroke="white" stroke-width="3" stroke-linecap="round" stroke-linejoin="round"/>
<path d="M195.011 891.44L129.959 928.998L129.953 1004.11L195.006 966.556L195.011 891.44Z" fill="#0B6BCB"/>
<path d="M195.001 891.442L129.947 928.998L129.953 1004.11M129.953 1004.11L129.959 928.998L195.011 891.44L195.006 966.556L129.953 1004.11Z" stroke="white" stroke-width="3" stroke-linecap="round" stroke-linejoin="round"/>
<path d="M64.8832 891.44L129.936 928.998L129.941 1004.11L64.8889 966.556L64.8832 891.44Z" fill="#97C3F0"/>
<path d="M64.8818 891.442L129.936 928.998M129.936 928.998L64.8832 891.44L64.8889 966.556L129.941 1004.11M129.936 928.998L129.941 1004.11M129.941 1004.11L129.947 928.998" stroke="white" stroke-width="3" stroke-linecap="round" stroke-linejoin="round"/>
<path d="M64.8818 447.884L129.936 410.329L194.99 447.884L129.936 485.44L64.8818 447.884Z" fill="#E3EFFB"/>
<path d="M129.936 485.44L194.99 447.884L129.936 410.329L64.8818 447.884L129.936 485.44ZM129.936 485.44L64.8832 447.882M195 447.882L129.947 485.44" stroke="white" stroke-width="3" stroke-linecap="round" stroke-linejoin="round"/>
<path d="M195.011 447.44L129.959 484.998L129.953 560.114L195.006 522.556L195.011 447.44Z" fill="#0B6BCB"/>
<path d="M195.001 447.442L129.947 484.998L129.953 560.114M129.953 560.114L129.959 484.998L195.011 447.44L195.006 522.556L129.953 560.114Z" stroke="white" stroke-width="3" stroke-linecap="round" stroke-linejoin="round"/>
<path d="M64.8832 447.44L129.936 484.998L129.941 560.114L64.8889 522.556L64.8832 447.44Z" fill="#97C3F0"/>
<path d="M64.8818 447.442L129.936 484.998M129.936 484.998L64.8832 447.44L64.8889 522.556L129.941 560.114M129.936 484.998L129.941 560.114M129.941 560.114L129.947 484.998" stroke="white" stroke-width="3" stroke-linecap="round" stroke-linejoin="round"/>
<ellipse cx="12.7198" cy="27.6336" rx="12.7198" ry="27.6336" transform="matrix(4.37114e-08 1 0.865988 -0.500065 138.549 504.875)" fill="white"/>
<circle cx="8.56084" cy="8.56084" r="8.56084" transform="matrix(4.37114e-08 1 0.865988 -0.500065 155.065 499.497)" fill="#0B6BCB"/>
<path d="M64.8818 669.884L129.936 632.329L194.99 669.884L129.936 707.44L64.8818 669.884Z" fill="#E3EFFB"/>
<path d="M129.936 707.44L194.99 669.884L129.936 632.329L64.8818 669.884L129.936 707.44ZM129.936 707.44L64.8832 669.882M195 669.882L129.947 707.44" stroke="white" stroke-width="3" stroke-linecap="round" stroke-linejoin="round"/>
<path d="M195.011 669.44L129.959 706.998L129.953 782.114L195.006 744.556L195.011 669.44Z" fill="#0B6BCB"/>
<path d="M195.001 669.442L129.947 706.998L129.953 782.114M129.953 782.114L129.959 706.998L195.011 669.44L195.006 744.556L129.953 782.114Z" stroke="white" stroke-width="3" stroke-linecap="round" stroke-linejoin="round"/>
<path d="M64.8832 669.44L129.936 706.998L129.941 782.114L64.8889 744.556L64.8832 669.44Z" fill="#97C3F0"/>
<path d="M64.8818 669.442L129.936 706.998M129.936 706.998L64.8832 669.44L64.8889 744.556L129.941 782.114M129.936 706.998L129.941 782.114M129.941 782.114L129.947 706.998" stroke="white" stroke-width="3" stroke-linecap="round" stroke-linejoin="round"/>
<path d="M64.8818 225.884L129.936 188.329L194.99 225.884L129.936 263.44L64.8818 225.884Z" fill="#E3EFFB"/>
<path d="M129.936 263.44L194.99 225.884L129.936 188.329L64.8818 225.884L129.936 263.44ZM129.936 263.44L64.8832 225.882M195 225.882L129.947 263.44" stroke="white" stroke-width="3" stroke-linecap="round" stroke-linejoin="round"/>
<path d="M195.011 225.44L129.959 262.998L129.953 338.114L195.006 300.556L195.011 225.44Z" fill="#0B6BCB"/>
<path d="M195.001 225.442L129.947 262.998L129.953 338.114M129.953 338.114L129.959 262.998L195.011 225.44L195.006 300.556L129.953 338.114Z" stroke="white" stroke-width="3" stroke-linecap="round" stroke-linejoin="round"/>
<path d="M64.8832 225.44L129.936 262.998L129.941 338.114L64.8889 300.556L64.8832 225.44Z" fill="#97C3F0"/>
<path d="M64.8818 225.442L129.936 262.998M129.936 262.998L64.8832 225.44L64.8889 300.556L129.941 338.114M129.936 262.998L129.941 338.114M129.941 338.114L129.947 262.998" stroke="white" stroke-width="3" stroke-linecap="round" stroke-linejoin="round"/>
<path d="M64.8818 0.654209L129.936 -36.9014L194.99 0.654205L129.936 38.2098L64.8818 0.654209Z" fill="#E3EFFB"/>
<path d="M129.936 38.2098L194.99 0.654205L129.936 -36.9014L64.8818 0.654209L129.936 38.2098ZM129.936 38.2098L64.8832 0.651707M195 0.65173L129.947 38.2097" stroke="white" stroke-width="3" stroke-linecap="round" stroke-linejoin="round"/>
<path d="M195.011 0.209961L129.959 37.768L129.953 112.884L195.006 75.326L195.011 0.209961Z" fill="#0B6BCB"/>
<path d="M195.001 0.212437L129.947 37.768L129.953 112.884M129.953 112.884L129.959 37.768L195.011 0.209961L195.006 75.326L129.953 112.884Z" stroke="white" stroke-width="3" stroke-linecap="round" stroke-linejoin="round"/>
<path d="M64.8832 0.209961L129.936 37.768L129.941 112.884L64.8889 75.326L64.8832 0.209961Z" fill="#97C3F0"/>
<path d="M64.8818 0.212464L129.936 37.768M129.936 37.768L64.8832 0.209961L64.8889 75.326L129.941 112.884M129.936 37.768L129.941 112.884M129.941 112.884L129.947 37.768" stroke="white" stroke-width="3" stroke-linecap="round" stroke-linejoin="round"/>
<path d="M-0.177246 1004.88L64.8766 967.328L129.93 1004.88L64.8766 1042.44L-0.177246 1004.88Z" fill="#E3EFFB"/>
<path d="M64.8766 1042.44L129.93 1004.88L64.8766 967.328L-0.177246 1004.88L64.8766 1042.44ZM64.8766 1042.44L-0.17586 1004.88M129.941 1004.88L64.8881 1042.44" stroke="white" stroke-width="3" stroke-linecap="round" stroke-linejoin="round"/>
<path d="M129.952 1004.44L64.8997 1042L64.8938 1117.11L129.946 1079.56L129.952 1004.44Z" fill="#0B6BCB"/>
<path d="M129.942 1004.44L64.8882 1042L64.8938 1117.11M64.8938 1117.11L64.8997 1042L129.952 1004.44L129.946 1079.56L64.8938 1117.11Z" stroke="white" stroke-width="3" stroke-linecap="round" stroke-linejoin="round"/>
<path d="M-0.17586 1004.44L64.8766 1042L64.8822 1117.11L-0.170184 1079.56L-0.17586 1004.44Z" fill="#97C3F0"/>
<path d="M-0.177246 1004.44L64.8766 1042M64.8766 1042L-0.17586 1004.44L-0.170184 1079.56L64.8822 1117.11M64.8766 1042L64.8822 1117.11M64.8822 1117.11L64.8881 1042" stroke="white" stroke-width="3" stroke-linecap="round" stroke-linejoin="round"/>
<path d="M-0.177246 560.884L64.8766 523.328L129.93 560.884L64.8766 598.439L-0.177246 560.884Z" fill="#E3EFFB"/>
<path d="M64.8766 598.439L129.93 560.884L64.8766 523.328L-0.177246 560.884L64.8766 598.439ZM64.8766 598.439L-0.17586 560.881M129.941 560.881L64.8881 598.439" stroke="white" stroke-width="3" stroke-linecap="round" stroke-linejoin="round"/>
<path d="M129.952 560.439L64.8997 597.997L64.8938 673.114L129.946 635.555L129.952 560.439Z" fill="#0B6BCB"/>
<path d="M129.942 560.442L64.8882 597.998L64.8938 673.114M64.8938 673.114L64.8997 597.997L129.952 560.439L129.946 635.555L64.8938 673.114Z" stroke="white" stroke-width="3" stroke-linecap="round" stroke-linejoin="round"/>
<path d="M-0.17586 560.439L64.8766 597.998L64.8822 673.114L-0.170184 635.556L-0.17586 560.439Z" fill="#97C3F0"/>
<path d="M-0.177246 560.442L64.8766 597.998M64.8766 597.998L-0.17586 560.439L-0.170184 635.556L64.8822 673.114M64.8766 597.998L64.8822 673.114M64.8822 673.114L64.8881 597.997" stroke="white" stroke-width="3" stroke-linecap="round" stroke-linejoin="round"/>
<path d="M-0.177246 782.884L64.8766 745.329L129.93 782.884L64.8766 820.44L-0.177246 782.884Z" fill="#E3EFFB"/>
<path d="M64.8766 820.44L129.93 782.884L64.8766 745.329L-0.177246 782.884L64.8766 820.44ZM64.8766 820.44L-0.17586 782.882M129.941 782.882L64.8881 820.44" stroke="white" stroke-width="3" stroke-linecap="round" stroke-linejoin="round"/>
<path d="M129.952 782.44L64.8997 819.998L64.8938 895.114L129.946 857.556L129.952 782.44Z" fill="#0B6BCB"/>
<path d="M129.942 782.442L64.8882 819.998L64.8938 895.114M64.8938 895.114L64.8997 819.998L129.952 782.44L129.946 857.556L64.8938 895.114Z" stroke="white" stroke-width="3" stroke-linecap="round" stroke-linejoin="round"/>
<path d="M-0.17586 782.44L64.8766 819.998L64.8822 895.114L-0.170184 857.556L-0.17586 782.44Z" fill="#97C3F0"/>
<path d="M-0.177246 782.442L64.8766 819.998M64.8766 819.998L-0.17586 782.44L-0.170184 857.556L64.8822 895.114M64.8766 819.998L64.8822 895.114M64.8822 895.114L64.8881 819.998" stroke="white" stroke-width="3" stroke-linecap="round" stroke-linejoin="round"/>
<path d="M-0.177246 338.884L64.8766 301.329L129.93 338.884L64.8766 376.44L-0.177246 338.884Z" fill="#E3EFFB"/>
<path d="M64.8766 376.44L129.93 338.884L64.8766 301.329L-0.177246 338.884L64.8766 376.44ZM64.8766 376.44L-0.17586 338.882M129.941 338.882L64.8881 376.44" stroke="white" stroke-width="3" stroke-linecap="round" stroke-linejoin="round"/>
<path d="M129.952 338.44L64.8997 375.998L64.8938 451.114L129.946 413.556L129.952 338.44Z" fill="#0B6BCB"/>
<path d="M129.942 338.442L64.8882 375.998L64.8938 451.114M64.8938 451.114L64.8997 375.998L129.952 338.44L129.946 413.556L64.8938 451.114Z" stroke="white" stroke-width="3" stroke-linecap="round" stroke-linejoin="round"/>
<path d="M-0.17586 338.44L64.8766 375.998L64.8822 451.114L-0.170184 413.556L-0.17586 338.44Z" fill="#97C3F0"/>
<path d="M-0.177246 338.442L64.8766 375.998M64.8766 375.998L-0.17586 338.44L-0.170184 413.556L64.8822 451.114M64.8766 375.998L64.8822 451.114M64.8822 451.114L64.8881 375.998" stroke="white" stroke-width="3" stroke-linecap="round" stroke-linejoin="round"/>
<path d="M-0.177246 113.654L64.8766 76.0986L129.93 113.654L64.8766 151.21L-0.177246 113.654Z" fill="#E3EFFB"/>
<path d="M64.8766 151.21L129.93 113.654L64.8766 76.0986L-0.177246 113.654L64.8766 151.21ZM64.8766 151.21L-0.17586 113.652M129.941 113.652L64.8881 151.21" stroke="white" stroke-width="3" stroke-linecap="round" stroke-linejoin="round"/>
<path d="M129.952 113.21L64.8997 150.768L64.8938 225.884L129.946 188.326L129.952 113.21Z" fill="#0B6BCB"/>
<path d="M129.942 113.212L64.8882 150.768L64.8938 225.884M64.8938 225.884L64.8997 150.768L129.952 113.21L129.946 188.326L64.8938 225.884Z" stroke="white" stroke-width="3" stroke-linecap="round" stroke-linejoin="round"/>
<path d="M-0.17586 113.21L64.8766 150.768L64.8822 225.884L-0.170184 188.326L-0.17586 113.21Z" fill="#97C3F0"/>
<path d="M-0.177246 113.212L64.8766 150.768M64.8766 150.768L-0.17586 113.21L-0.170184 188.326L64.8822 225.884M64.8766 150.768L64.8822 225.884M64.8822 225.884L64.8881 150.768" stroke="white" stroke-width="3" stroke-linecap="round" stroke-linejoin="round"/>
<ellipse cx="12.7198" cy="27.6336" rx="12.7198" ry="27.6336" transform="matrix(4.37114e-08 1 0.865988 -0.500065 73.4897 170.646)" fill="white"/>
<circle cx="8.56084" cy="8.56084" r="8.56084" transform="matrix(4.37114e-08 1 0.865988 -0.500065 90.0063 165.267)" fill="#0B6BCB"/>
<path d="M-65.2363 891.884L-0.182487 854.329L64.8713 891.884L-0.182495 929.44L-65.2363 891.884Z" fill="#E3EFFB"/>
<path d="M-0.182495 929.44L64.8713 891.884L-0.182487 854.329L-65.2363 891.884L-0.182495 929.44ZM-0.182495 929.44L-65.2349 891.882M64.8814 891.882L-0.170967 929.44" stroke="white" stroke-width="3" stroke-linecap="round" stroke-linejoin="round"/>
<path d="M64.893 891.44L-0.159369 928.998L-0.165269 1004.11L64.8874 966.556L64.893 891.44Z" fill="#0B6BCB"/>
<path d="M64.8829 891.442L-0.170898 928.998L-0.165269 1004.11M-0.165269 1004.11L-0.159369 928.998L64.893 891.44L64.8874 966.556L-0.165269 1004.11Z" stroke="white" stroke-width="3" stroke-linecap="round" stroke-linejoin="round"/>
<path d="M-65.2349 891.44L-0.182495 928.998L-0.176872 1004.11L-65.2293 966.556L-65.2349 891.44Z" fill="#97C3F0"/>
<path d="M-65.2363 891.442L-0.182495 928.998M-0.182495 928.998L-65.2349 891.44L-65.2293 966.556L-0.176872 1004.11M-0.182495 928.998L-0.176872 1004.11M-0.176872 1004.11L-0.170967 928.998" stroke="white" stroke-width="3" stroke-linecap="round" stroke-linejoin="round"/>
<path d="M-65.2363 447.884L-0.182487 410.329L64.8713 447.884L-0.182495 485.44L-65.2363 447.884Z" fill="#E3EFFB"/>
<path d="M-0.182495 485.44L64.8713 447.884L-0.182487 410.329L-65.2363 447.884L-0.182495 485.44ZM-0.182495 485.44L-65.2349 447.882M64.8814 447.882L-0.170967 485.44" stroke="white" stroke-width="3" stroke-linecap="round" stroke-linejoin="round"/>
<path d="M64.893 447.44L-0.159369 484.998L-0.165269 560.114L64.8874 522.556L64.893 447.44Z" fill="#0B6BCB"/>
<path d="M64.8829 447.442L-0.170898 484.998L-0.165269 560.114M-0.165269 560.114L-0.159369 484.998L64.893 447.44L64.8874 522.556L-0.165269 560.114Z" stroke="white" stroke-width="3" stroke-linecap="round" stroke-linejoin="round"/>
<path d="M-65.2349 447.44L-0.182495 484.998L-0.176872 560.114L-65.2293 522.556L-65.2349 447.44Z" fill="#97C3F0"/>
<path d="M-65.2363 447.442L-0.182495 484.998M-0.182495 484.998L-65.2349 447.44L-65.2293 522.556L-0.176872 560.114M-0.182495 484.998L-0.176872 560.114M-0.176872 560.114L-0.170967 484.998" stroke="white" stroke-width="3" stroke-linecap="round" stroke-linejoin="round"/>
<path d="M-65.2363 669.884L-0.182487 632.329L64.8713 669.884L-0.182495 707.44L-65.2363 669.884Z" fill="#E3EFFB"/>
<path d="M-0.182495 707.44L64.8713 669.884L-0.182487 632.329L-65.2363 669.884L-0.182495 707.44ZM-0.182495 707.44L-65.2349 669.882M64.8814 669.882L-0.170967 707.44" stroke="white" stroke-width="3" stroke-linecap="round" stroke-linejoin="round"/>
<path d="M64.893 669.44L-0.159369 706.998L-0.165269 782.114L64.8874 744.556L64.893 669.44Z" fill="#0B6BCB"/>
<path d="M64.8829 669.442L-0.170898 706.998L-0.165269 782.114M-0.165269 782.114L-0.159369 706.998L64.893 669.44L64.8874 744.556L-0.165269 782.114Z" stroke="white" stroke-width="3" stroke-linecap="round" stroke-linejoin="round"/>
<path d="M-65.2349 669.44L-0.182495 706.998L-0.176872 782.114L-65.2293 744.556L-65.2349 669.44Z" fill="#97C3F0"/>
<path d="M-65.2363 669.442L-0.182495 706.998M-0.182495 706.998L-65.2349 669.44L-65.2293 744.556L-0.176872 782.114M-0.182495 706.998L-0.176872 782.114M-0.176872 782.114L-0.170967 706.998" stroke="white" stroke-width="3" stroke-linecap="round" stroke-linejoin="round"/>
<path d="M-65.2363 225.884L-0.182487 188.329L64.8713 225.884L-0.182495 263.44L-65.2363 225.884Z" fill="#E3EFFB"/>
<path d="M-0.182495 263.44L64.8713 225.884L-0.182487 188.329L-65.2363 225.884L-0.182495 263.44ZM-0.182495 263.44L-65.2349 225.882M64.8814 225.882L-0.170967 263.44" stroke="white" stroke-width="3" stroke-linecap="round" stroke-linejoin="round"/>
<path d="M64.893 225.44L-0.159369 262.998L-0.165269 338.114L64.8874 300.556L64.893 225.44Z" fill="#0B6BCB"/>
<path d="M64.8829 225.442L-0.170898 262.998L-0.165269 338.114M-0.165269 338.114L-0.159369 262.998L64.893 225.44L64.8874 300.556L-0.165269 338.114Z" stroke="white" stroke-width="3" stroke-linecap="round" stroke-linejoin="round"/>
<path d="M-65.2349 225.44L-0.182495 262.998L-0.176872 338.114L-65.2293 300.556L-65.2349 225.44Z" fill="#97C3F0"/>
<path d="M-65.2363 225.442L-0.182495 262.998M-0.182495 262.998L-65.2349 225.44L-65.2293 300.556L-0.176872 338.114M-0.182495 262.998L-0.176872 338.114M-0.176872 338.114L-0.170967 262.998" stroke="white" stroke-width="3" stroke-linecap="round" stroke-linejoin="round"/>
<path d="M-65.2363 0.654209L-0.182487 -36.9014L64.8713 0.654205L-0.182495 38.2098L-65.2363 0.654209Z" fill="#E3EFFB"/>
<path d="M-0.182495 38.2098L64.8713 0.654205L-0.182487 -36.9014L-65.2363 0.654209L-0.182495 38.2098ZM-0.182495 38.2098L-65.2349 0.651707M64.8814 0.65173L-0.170967 38.2097" stroke="white" stroke-width="3" stroke-linecap="round" stroke-linejoin="round"/>
<path d="M64.893 0.209961L-0.159369 37.768L-0.165269 112.884L64.8874 75.326L64.893 0.209961Z" fill="#0B6BCB"/>
<path d="M64.8829 0.212437L-0.170898 37.768L-0.165269 112.884M-0.165269 112.884L-0.159369 37.768L64.893 0.209961L64.8874 75.326L-0.165269 112.884Z" stroke="white" stroke-width="3" stroke-linecap="round" stroke-linejoin="round"/>
<path d="M-65.2349 0.209961L-0.182495 37.768L-0.176872 112.884L-65.2293 75.326L-65.2349 0.209961Z" fill="#97C3F0"/>
<path d="M-65.2363 0.212464L-0.182495 37.768M-0.182495 37.768L-65.2349 0.209961L-65.2293 75.326L-0.176872 112.884M-0.182495 37.768L-0.176872 112.884M-0.176872 112.884L-0.170967 37.768" stroke="white" stroke-width="3" stroke-linecap="round" stroke-linejoin="round"/>
<path d="M195 891.884L260.054 854.329L325.108 891.884L260.054 929.44L195 891.884Z" fill="#E3EFFB"/>
<path d="M260.054 929.44L325.108 891.884L260.054 854.329L195 891.884L260.054 929.44ZM260.054 929.44L195.001 891.882M325.118 891.882L260.065 929.44" stroke="white" stroke-width="3" stroke-linecap="round" stroke-linejoin="round"/>
<path d="M325.129 891.44L260.077 928.998L260.071 1004.11L325.124 966.556L325.129 891.44Z" fill="#0B6BCB"/>
<path d="M325.119 891.442L260.065 928.998L260.071 1004.11M260.071 1004.11L260.077 928.998L325.129 891.44L325.124 966.556L260.071 1004.11Z" stroke="white" stroke-width="3" stroke-linecap="round" stroke-linejoin="round"/>
<path d="M195.001 891.44L260.054 928.998L260.059 1004.11L195.007 966.556L195.001 891.44Z" fill="#97C3F0"/>
<path d="M195 891.442L260.054 928.998M260.054 928.998L195.001 891.44L195.007 966.556L260.059 1004.11M260.054 928.998L260.059 1004.11M260.059 1004.11L260.065 928.998" stroke="white" stroke-width="3" stroke-linecap="round" stroke-linejoin="round"/>
<path d="M195 447.884L260.054 410.329L325.108 447.884L260.054 485.44L195 447.884Z" fill="#E3EFFB"/>
<path d="M260.054 485.44L325.108 447.884L260.054 410.329L195 447.884L260.054 485.44ZM260.054 485.44L195.001 447.882M325.118 447.882L260.065 485.44" stroke="white" stroke-width="3" stroke-linecap="round" stroke-linejoin="round"/>
<path d="M325.129 447.44L260.077 484.998L260.071 560.114L325.124 522.556L325.129 447.44Z" fill="#0B6BCB"/>
<path d="M325.119 447.442L260.065 484.998L260.071 560.114M260.071 560.114L260.077 484.998L325.129 447.44L325.124 522.556L260.071 560.114Z" stroke="white" stroke-width="3" stroke-linecap="round" stroke-linejoin="round"/>
<path d="M195.001 447.44L260.054 484.998L260.059 560.114L195.007 522.556L195.001 447.44Z" fill="#97C3F0"/>
<path d="M195 447.442L260.054 484.998M260.054 484.998L195.001 447.44L195.007 522.556L260.059 560.114M260.054 484.998L260.059 560.114M260.059 560.114L260.065 484.998" stroke="white" stroke-width="3" stroke-linecap="round" stroke-linejoin="round"/>
<path d="M195 669.884L260.054 632.329L325.108 669.884L260.054 707.44L195 669.884Z" fill="#E3EFFB"/>
<path d="M260.054 707.44L325.108 669.884L260.054 632.329L195 669.884L260.054 707.44ZM260.054 707.44L195.001 669.882M325.118 669.882L260.065 707.44" stroke="white" stroke-width="3" stroke-linecap="round" stroke-linejoin="round"/>
<path d="M325.129 669.44L260.077 706.998L260.071 782.114L325.124 744.556L325.129 669.44Z" fill="#0B6BCB"/>
<path d="M325.119 669.442L260.065 706.998L260.071 782.114M260.071 782.114L260.077 706.998L325.129 669.44L325.124 744.556L260.071 782.114Z" stroke="white" stroke-width="3" stroke-linecap="round" stroke-linejoin="round"/>
<path d="M195.001 669.44L260.054 706.998L260.059 782.114L195.007 744.556L195.001 669.44Z" fill="#97C3F0"/>
<path d="M195 669.442L260.054 706.998M260.054 706.998L195.001 669.44L195.007 744.556L260.059 782.114M260.054 706.998L260.059 782.114M260.059 782.114L260.065 706.998" stroke="white" stroke-width="3" stroke-linecap="round" stroke-linejoin="round"/>
<path d="M195 225.884L260.054 188.329L325.108 225.884L260.054 263.44L195 225.884Z" fill="#E3EFFB"/>
<path d="M260.054 263.44L325.108 225.884L260.054 188.329L195 225.884L260.054 263.44ZM260.054 263.44L195.001 225.882M325.118 225.882L260.065 263.44" stroke="white" stroke-width="3" stroke-linecap="round" stroke-linejoin="round"/>
<path d="M325.129 225.44L260.077 262.998L260.071 338.114L325.124 300.556L325.129 225.44Z" fill="#0B6BCB"/>
<path d="M325.119 225.442L260.065 262.998L260.071 338.114M260.071 338.114L260.077 262.998L325.129 225.44L325.124 300.556L260.071 338.114Z" stroke="white" stroke-width="3" stroke-linecap="round" stroke-linejoin="round"/>
<path d="M195.001 225.44L260.054 262.998L260.059 338.114L195.007 300.556L195.001 225.44Z" fill="#97C3F0"/>
<path d="M195 225.442L260.054 262.998M260.054 262.998L195.001 225.44L195.007 300.556L260.059 338.114M260.054 262.998L260.059 338.114M260.059 338.114L260.065 262.998" stroke="white" stroke-width="3" stroke-linecap="round" stroke-linejoin="round"/>
<ellipse cx="12.7198" cy="27.6336" rx="12.7198" ry="27.6336" transform="matrix(4.37114e-08 1 0.865988 -0.500065 268.667 282.875)" fill="white"/>
<circle cx="8.56084" cy="8.56084" r="8.56084" transform="matrix(4.37114e-08 1 0.865988 -0.500065 285.184 277.497)" fill="#0B6BCB"/>
<path d="M195 0.654209L260.054 -36.9014L325.108 0.654205L260.054 38.2098L195 0.654209Z" fill="#E3EFFB"/>
<path d="M260.054 38.2098L325.108 0.654205L260.054 -36.9014L195 0.654209L260.054 38.2098ZM260.054 38.2098L195.001 0.651707M325.118 0.65173L260.065 38.2097" stroke="white" stroke-width="3" stroke-linecap="round" stroke-linejoin="round"/>
<path d="M325.129 0.209961L260.077 37.768L260.071 112.884L325.124 75.326L325.129 0.209961Z" fill="#0B6BCB"/>
<path d="M325.119 0.212437L260.065 37.768L260.071 112.884M260.071 112.884L260.077 37.768L325.129 0.209961L325.124 75.326L260.071 112.884Z" stroke="white" stroke-width="3" stroke-linecap="round" stroke-linejoin="round"/>
<path d="M195.001 0.209961L260.054 37.768L260.059 112.884L195.007 75.326L195.001 0.209961Z" fill="#97C3F0"/>
<path d="M195 0.212464L260.054 37.768M260.054 37.768L195.001 0.209961L195.007 75.326L260.059 112.884M260.054 37.768L260.059 112.884M260.059 112.884L260.065 37.768" stroke="white" stroke-width="3" stroke-linecap="round" stroke-linejoin="round"/>
<path d="M129.941 1004.88L194.995 967.328L260.049 1004.88L194.995 1042.44L129.941 1004.88Z" fill="#E3EFFB"/>
<path d="M194.995 1042.44L260.049 1004.88L194.995 967.328L129.941 1004.88L194.995 1042.44ZM194.995 1042.44L129.942 1004.88M260.059 1004.88L195.006 1042.44" stroke="white" stroke-width="3" stroke-linecap="round" stroke-linejoin="round"/>
<path d="M260.07 1004.44L195.018 1042L195.012 1117.11L260.065 1079.56L260.07 1004.44Z" fill="#0B6BCB"/>
<path d="M260.06 1004.44L195.006 1042L195.012 1117.11M195.012 1117.11L195.018 1042L260.07 1004.44L260.065 1079.56L195.012 1117.11Z" stroke="white" stroke-width="3" stroke-linecap="round" stroke-linejoin="round"/>
<path d="M129.942 1004.44L194.995 1042L195 1117.11L129.948 1079.56L129.942 1004.44Z" fill="#97C3F0"/>
<path d="M129.941 1004.44L194.995 1042M194.995 1042L129.942 1004.44L129.948 1079.56L195 1117.11M194.995 1042L195 1117.11M195 1117.11L195.006 1042" stroke="white" stroke-width="3" stroke-linecap="round" stroke-linejoin="round"/>
<path d="M129.941 560.884L194.995 523.328L260.049 560.884L194.995 598.439L129.941 560.884Z" fill="#E3EFFB"/>
<path d="M194.995 598.439L260.049 560.884L194.995 523.328L129.941 560.884L194.995 598.439ZM194.995 598.439L129.942 560.881M260.059 560.881L195.006 598.439" stroke="white" stroke-width="3" stroke-linecap="round" stroke-linejoin="round"/>
<path d="M260.07 560.439L195.018 597.997L195.012 673.114L260.065 635.555L260.07 560.439Z" fill="#0B6BCB"/>
<path d="M260.06 560.442L195.006 597.998L195.012 673.114M195.012 673.114L195.018 597.997L260.07 560.439L260.065 635.555L195.012 673.114Z" stroke="white" stroke-width="3" stroke-linecap="round" stroke-linejoin="round"/>
<path d="M129.942 560.439L194.995 597.998L195 673.114L129.948 635.556L129.942 560.439Z" fill="#97C3F0"/>
<path d="M129.941 560.442L194.995 597.998M194.995 597.998L129.942 560.439L129.948 635.556L195 673.114M194.995 597.998L195 673.114M195 673.114L195.006 597.997" stroke="white" stroke-width="3" stroke-linecap="round" stroke-linejoin="round"/>
<path d="M129.941 782.884L194.995 745.329L260.049 782.884L194.995 820.44L129.941 782.884Z" fill="#E3EFFB"/>
<path d="M194.995 820.44L260.049 782.884L194.995 745.329L129.941 782.884L194.995 820.44ZM194.995 820.44L129.942 782.882M260.059 782.882L195.006 820.44" stroke="white" stroke-width="3" stroke-linecap="round" stroke-linejoin="round"/>
<path d="M260.07 782.44L195.018 819.998L195.012 895.114L260.065 857.556L260.07 782.44Z" fill="#0B6BCB"/>
<path d="M260.06 782.442L195.006 819.998L195.012 895.114M195.012 895.114L195.018 819.998L260.07 782.44L260.065 857.556L195.012 895.114Z" stroke="white" stroke-width="3" stroke-linecap="round" stroke-linejoin="round"/>
<path d="M129.942 782.44L194.995 819.998L195 895.114L129.948 857.556L129.942 782.44Z" fill="#97C3F0"/>
<path d="M129.941 782.442L194.995 819.998M194.995 819.998L129.942 782.44L129.948 857.556L195 895.114M194.995 819.998L195 895.114M195 895.114L195.006 819.998" stroke="white" stroke-width="3" stroke-linecap="round" stroke-linejoin="round"/>
<ellipse cx="12.7198" cy="27.6336" rx="12.7198" ry="27.6336" transform="matrix(4.37114e-08 1 0.865988 -0.500065 203.608 839.875)" fill="white"/>
<circle cx="8.56084" cy="8.56084" r="8.56084" transform="matrix(4.37114e-08 1 0.865988 -0.500065 220.125 834.497)" fill="#0B6BCB"/>
<path d="M129.941 338.884L194.995 301.329L260.049 338.884L194.995 376.44L129.941 338.884Z" fill="#E3EFFB"/>
<path d="M194.995 376.44L260.049 338.884L194.995 301.329L129.941 338.884L194.995 376.44ZM194.995 376.44L129.942 338.882M260.059 338.882L195.006 376.44" stroke="white" stroke-width="3" stroke-linecap="round" stroke-linejoin="round"/>
<path d="M260.07 338.44L195.018 375.998L195.012 451.114L260.065 413.556L260.07 338.44Z" fill="#0B6BCB"/>
<path d="M260.06 338.442L195.006 375.998L195.012 451.114M195.012 451.114L195.018 375.998L260.07 338.44L260.065 413.556L195.012 451.114Z" stroke="white" stroke-width="3" stroke-linecap="round" stroke-linejoin="round"/>
<path d="M129.942 338.44L194.995 375.998L195 451.114L129.948 413.556L129.942 338.44Z" fill="#97C3F0"/>
<path d="M129.941 338.442L194.995 375.998M194.995 375.998L129.942 338.44L129.948 413.556L195 451.114M194.995 375.998L195 451.114M195 451.114L195.006 375.998" stroke="white" stroke-width="3" stroke-linecap="round" stroke-linejoin="round"/>
<path d="M129.941 113.654L194.995 76.0986L260.049 113.654L194.995 151.21L129.941 113.654Z" fill="#E3EFFB"/>
<path d="M194.995 151.21L260.049 113.654L194.995 76.0986L129.941 113.654L194.995 151.21ZM194.995 151.21L129.942 113.652M260.059 113.652L195.006 151.21" stroke="white" stroke-width="3" stroke-linecap="round" stroke-linejoin="round"/>
<path d="M260.07 113.21L195.018 150.768L195.012 225.884L260.065 188.326L260.07 113.21Z" fill="#0B6BCB"/>
<path d="M260.06 113.212L195.006 150.768L195.012 225.884M195.012 225.884L195.018 150.768L260.07 113.21L260.065 188.326L195.012 225.884Z" stroke="white" stroke-width="3" stroke-linecap="round" stroke-linejoin="round"/>
<path d="M129.942 113.21L194.995 150.768L195 225.884L129.948 188.326L129.942 113.21Z" fill="#97C3F0"/>
<path d="M129.941 113.212L194.995 150.768M194.995 150.768L129.942 113.21L129.948 188.326L195 225.884M194.995 150.768L195 225.884M195 225.884L195.006 150.768" stroke="white" stroke-width="3" stroke-linecap="round" stroke-linejoin="round"/>
<path d="M260.059 1004.88L325.113 967.328L390.167 1004.88L325.113 1042.44L260.059 1004.88Z" fill="#E3EFFB"/>
<path d="M325.113 1042.44L390.167 1004.88L325.113 967.328L260.059 1004.88L325.113 1042.44ZM325.113 1042.44L260.06 1004.88M390.177 1004.88L325.124 1042.44" stroke="white" stroke-width="3" stroke-linecap="round" stroke-linejoin="round"/>
<path d="M390.188 1004.44L325.136 1042L325.13 1117.11L390.183 1079.56L390.188 1004.44Z" fill="#0B6BCB"/>
<path d="M390.178 1004.44L325.125 1042L325.13 1117.11M325.13 1117.11L325.136 1042L390.188 1004.44L390.183 1079.56L325.13 1117.11Z" stroke="white" stroke-width="3" stroke-linecap="round" stroke-linejoin="round"/>
<path d="M260.06 1004.44L325.113 1042L325.119 1117.11L260.066 1079.56L260.06 1004.44Z" fill="#97C3F0"/>
<path d="M260.059 1004.44L325.113 1042M325.113 1042L260.06 1004.44L260.066 1079.56L325.119 1117.11M325.113 1042L325.119 1117.11M325.119 1117.11L325.124 1042" stroke="white" stroke-width="3" stroke-linecap="round" stroke-linejoin="round"/>
<path d="M260.059 560.884L325.113 523.328L390.167 560.884L325.113 598.439L260.059 560.884Z" fill="#E3EFFB"/>
<path d="M325.113 598.439L390.167 560.884L325.113 523.328L260.059 560.884L325.113 598.439ZM325.113 598.439L260.06 560.881M390.177 560.881L325.124 598.439" stroke="white" stroke-width="3" stroke-linecap="round" stroke-linejoin="round"/>
<path d="M390.188 560.439L325.136 597.997L325.13 673.114L390.183 635.555L390.188 560.439Z" fill="#0B6BCB"/>
<path d="M390.178 560.442L325.125 597.998L325.13 673.114M325.13 673.114L325.136 597.997L390.188 560.439L390.183 635.555L325.13 673.114Z" stroke="white" stroke-width="3" stroke-linecap="round" stroke-linejoin="round"/>
<path d="M260.06 560.439L325.113 597.998L325.119 673.114L260.066 635.556L260.06 560.439Z" fill="#97C3F0"/>
<path d="M260.059 560.442L325.113 597.998M325.113 597.998L260.06 560.439L260.066 635.556L325.119 673.114M325.113 597.998L325.119 673.114M325.119 673.114L325.124 597.997" stroke="white" stroke-width="3" stroke-linecap="round" stroke-linejoin="round"/>
<ellipse cx="12.7198" cy="27.6336" rx="12.7198" ry="27.6336" transform="matrix(4.37114e-08 1 0.865988 -0.500065 333.726 617.875)" fill="white"/>
<circle cx="8.56084" cy="8.56084" r="8.56084" transform="matrix(4.37114e-08 1 0.865988 -0.500065 350.243 612.497)" fill="#0B6BCB"/>
<path d="M260.059 782.884L325.113 745.329L390.167 782.884L325.113 820.44L260.059 782.884Z" fill="#E3EFFB"/>
<path d="M325.113 820.44L390.167 782.884L325.113 745.329L260.059 782.884L325.113 820.44ZM325.113 820.44L260.06 782.882M390.177 782.882L325.124 820.44" stroke="white" stroke-width="3" stroke-linecap="round" stroke-linejoin="round"/>
<path d="M390.188 782.44L325.136 819.998L325.13 895.114L390.183 857.556L390.188 782.44Z" fill="#0B6BCB"/>
<path d="M390.178 782.442L325.125 819.998L325.13 895.114M325.13 895.114L325.136 819.998L390.188 782.44L390.183 857.556L325.13 895.114Z" stroke="white" stroke-width="3" stroke-linecap="round" stroke-linejoin="round"/>
<path d="M260.06 782.44L325.113 819.998L325.119 895.114L260.066 857.556L260.06 782.44Z" fill="#97C3F0"/>
<path d="M260.059 782.442L325.113 819.998M325.113 819.998L260.06 782.44L260.066 857.556L325.119 895.114M325.113 819.998L325.119 895.114M325.119 895.114L325.124 819.998" stroke="white" stroke-width="3" stroke-linecap="round" stroke-linejoin="round"/>
<path d="M260.059 338.884L325.113 301.329L390.167 338.884L325.113 376.44L260.059 338.884Z" fill="#E3EFFB"/>
<path d="M325.113 376.44L390.167 338.884L325.113 301.329L260.059 338.884L325.113 376.44ZM325.113 376.44L260.06 338.882M390.177 338.882L325.124 376.44" stroke="white" stroke-width="3" stroke-linecap="round" stroke-linejoin="round"/>
<path d="M390.188 338.44L325.136 375.998L325.13 451.114L390.183 413.556L390.188 338.44Z" fill="#0B6BCB"/>
<path d="M390.178 338.442L325.125 375.998L325.13 451.114M325.13 451.114L325.136 375.998L390.188 338.44L390.183 413.556L325.13 451.114Z" stroke="white" stroke-width="3" stroke-linecap="round" stroke-linejoin="round"/>
<path d="M260.06 338.44L325.113 375.998L325.119 451.114L260.066 413.556L260.06 338.44Z" fill="#97C3F0"/>
<path d="M260.059 338.442L325.113 375.998M325.113 375.998L260.06 338.44L260.066 413.556L325.119 451.114M325.113 375.998L325.119 451.114M325.119 451.114L325.124 375.998" stroke="white" stroke-width="3" stroke-linecap="round" stroke-linejoin="round"/>
<path d="M260.059 113.654L325.113 76.0986L390.167 113.654L325.113 151.21L260.059 113.654Z" fill="#E3EFFB"/>
<path d="M325.113 151.21L390.167 113.654L325.113 76.0986L260.059 113.654L325.113 151.21ZM325.113 151.21L260.06 113.652M390.177 113.652L325.124 151.21" stroke="white" stroke-width="3" stroke-linecap="round" stroke-linejoin="round"/>
<path d="M390.188 113.21L325.136 150.768L325.13 225.884L390.183 188.326L390.188 113.21Z" fill="#0B6BCB"/>
<path d="M390.178 113.212L325.125 150.768L325.13 225.884M325.13 225.884L325.136 150.768L390.188 113.21L390.183 188.326L325.13 225.884Z" stroke="white" stroke-width="3" stroke-linecap="round" stroke-linejoin="round"/>
<path d="M260.06 113.21L325.113 150.768L325.119 225.884L260.066 188.326L260.06 113.21Z" fill="#97C3F0"/>
<path d="M260.059 113.212L325.113 150.768M325.113 150.768L260.06 113.21L260.066 188.326L325.119 225.884M325.113 150.768L325.119 225.884M325.119 225.884L325.124 150.768" stroke="white" stroke-width="3" stroke-linecap="round" stroke-linejoin="round"/>
<path d="M325.118 891.884L390.172 854.329L455.226 891.884L390.172 929.44L325.118 891.884Z" fill="#E3EFFB"/>
<path d="M390.172 929.44L455.226 891.884L390.172 854.329L325.118 891.884L390.172 929.44ZM390.172 929.44L325.12 891.882M455.236 891.882L390.184 929.44" stroke="white" stroke-width="3" stroke-linecap="round" stroke-linejoin="round"/>
<path d="M455.248 891.44L390.195 928.998L390.189 1004.11L455.242 966.556L455.248 891.44Z" fill="#0B6BCB"/>
<path d="M455.237 891.442L390.184 928.998L390.189 1004.11M390.189 1004.11L390.195 928.998L455.248 891.44L455.242 966.556L390.189 1004.11Z" stroke="white" stroke-width="3" stroke-linecap="round" stroke-linejoin="round"/>
<path d="M325.12 891.44L390.172 928.998L390.178 1004.11L325.125 966.556L325.12 891.44Z" fill="#97C3F0"/>
<path d="M325.118 891.442L390.172 928.998M390.172 928.998L325.12 891.44L325.125 966.556L390.178 1004.11M390.172 928.998L390.178 1004.11M390.178 1004.11L390.184 928.998" stroke="white" stroke-width="3" stroke-linecap="round" stroke-linejoin="round"/>
<ellipse cx="12.7198" cy="27.6336" rx="12.7198" ry="27.6336" transform="matrix(4.37114e-08 1 0.865988 -0.500065 398.785 948.876)" fill="white"/>
<circle cx="8.56084" cy="8.56084" r="8.56084" transform="matrix(4.37114e-08 1 0.865988 -0.500065 415.302 943.497)" fill="#0B6BCB"/>
<path d="M325.118 447.884L390.172 410.329L455.226 447.884L390.172 485.44L325.118 447.884Z" fill="#E3EFFB"/>
<path d="M390.172 485.44L455.226 447.884L390.172 410.329L325.118 447.884L390.172 485.44ZM390.172 485.44L325.12 447.882M455.236 447.882L390.184 485.44" stroke="white" stroke-width="3" stroke-linecap="round" stroke-linejoin="round"/>
<path d="M455.248 447.44L390.195 484.998L390.189 560.114L455.242 522.556L455.248 447.44Z" fill="#0B6BCB"/>
<path d="M455.237 447.442L390.184 484.998L390.189 560.114M390.189 560.114L390.195 484.998L455.248 447.44L455.242 522.556L390.189 560.114Z" stroke="white" stroke-width="3" stroke-linecap="round" stroke-linejoin="round"/>
<path d="M325.12 447.44L390.172 484.998L390.178 560.114L325.125 522.556L325.12 447.44Z" fill="#97C3F0"/>
<path d="M325.118 447.442L390.172 484.998M390.172 484.998L325.12 447.44L325.125 522.556L390.178 560.114M390.172 484.998L390.178 560.114M390.178 560.114L390.184 484.998" stroke="white" stroke-width="3" stroke-linecap="round" stroke-linejoin="round"/>
<path d="M325.118 669.884L390.172 632.329L455.226 669.884L390.172 707.44L325.118 669.884Z" fill="#E3EFFB"/>
<path d="M390.172 707.44L455.226 669.884L390.172 632.329L325.118 669.884L390.172 707.44ZM390.172 707.44L325.12 669.882M455.236 669.882L390.184 707.44" stroke="white" stroke-width="3" stroke-linecap="round" stroke-linejoin="round"/>
<path d="M455.248 669.44L390.195 706.998L390.189 782.114L455.242 744.556L455.248 669.44Z" fill="#0B6BCB"/>
<path d="M455.237 669.442L390.184 706.998L390.189 782.114M390.189 782.114L390.195 706.998L455.248 669.44L455.242 744.556L390.189 782.114Z" stroke="white" stroke-width="3" stroke-linecap="round" stroke-linejoin="round"/>
<path d="M325.12 669.44L390.172 706.998L390.178 782.114L325.125 744.556L325.12 669.44Z" fill="#97C3F0"/>
<path d="M325.118 669.442L390.172 706.998M390.172 706.998L325.12 669.44L325.125 744.556L390.178 782.114M390.172 706.998L390.178 782.114M390.178 782.114L390.184 706.998" stroke="white" stroke-width="3" stroke-linecap="round" stroke-linejoin="round"/>
<path d="M325.118 225.884L390.172 188.329L455.226 225.884L390.172 263.44L325.118 225.884Z" fill="#E3EFFB"/>
<path d="M390.172 263.44L455.226 225.884L390.172 188.329L325.118 225.884L390.172 263.44ZM390.172 263.44L325.12 225.882M455.236 225.882L390.184 263.44" stroke="white" stroke-width="3" stroke-linecap="round" stroke-linejoin="round"/>
<path d="M455.248 225.44L390.195 262.998L390.189 338.114L455.242 300.556L455.248 225.44Z" fill="#0B6BCB"/>
<path d="M455.237 225.442L390.184 262.998L390.189 338.114M390.189 338.114L390.195 262.998L455.248 225.44L455.242 300.556L390.189 338.114Z" stroke="white" stroke-width="3" stroke-linecap="round" stroke-linejoin="round"/>
<path d="M325.12 225.44L390.172 262.998L390.178 338.114L325.125 300.556L325.12 225.44Z" fill="#97C3F0"/>
<path d="M325.118 225.442L390.172 262.998M390.172 262.998L325.12 225.44L325.125 300.556L390.178 338.114M390.172 262.998L390.178 338.114M390.178 338.114L390.184 262.998" stroke="white" stroke-width="3" stroke-linecap="round" stroke-linejoin="round"/>
<path d="M325.118 0.654209L390.172 -36.9014L455.226 0.654205L390.172 38.2098L325.118 0.654209Z" fill="#E3EFFB"/>
<path d="M390.172 38.2098L455.226 0.654205L390.172 -36.9014L325.118 0.654209L390.172 38.2098ZM390.172 38.2098L325.12 0.651707M455.236 0.65173L390.184 38.2097" stroke="white" stroke-width="3" stroke-linecap="round" stroke-linejoin="round"/>
<path d="M455.248 0.209961L390.195 37.768L390.189 112.884L455.242 75.326L455.248 0.209961Z" fill="#0B6BCB"/>
<path d="M455.237 0.212437L390.184 37.768L390.189 112.884M390.189 112.884L390.195 37.768L455.248 0.209961L455.242 75.326L390.189 112.884Z" stroke="white" stroke-width="3" stroke-linecap="round" stroke-linejoin="round"/>
<path d="M325.12 0.209961L390.172 37.768L390.178 112.884L325.125 75.326L325.12 0.209961Z" fill="#97C3F0"/>
<path d="M325.118 0.212464L390.172 37.768M390.172 37.768L325.12 0.209961L325.125 75.326L390.178 112.884M390.172 37.768L390.178 112.884M390.178 112.884L390.184 37.768" stroke="white" stroke-width="3" stroke-linecap="round" stroke-linejoin="round"/>
<path d="M455.236 891.884L520.29 854.329L585.344 891.884L520.29 929.44L455.236 891.884Z" fill="#E3EFFB"/>
<path d="M520.29 929.44L585.344 891.884L520.29 854.329L455.236 891.884L520.29 929.44ZM520.29 929.44L455.238 891.882M585.354 891.882L520.302 929.44" stroke="white" stroke-width="3" stroke-linecap="round" stroke-linejoin="round"/>
<path d="M585.366 891.44L520.313 928.998L520.307 1004.11L585.36 966.556L585.366 891.44Z" fill="#0B6BCB"/>
<path d="M585.356 891.442L520.302 928.998L520.307 1004.11M520.307 1004.11L520.313 928.998L585.366 891.44L585.36 966.556L520.307 1004.11Z" stroke="white" stroke-width="3" stroke-linecap="round" stroke-linejoin="round"/>
<path d="M455.238 891.44L520.29 928.998L520.296 1004.11L455.243 966.556L455.238 891.44Z" fill="#97C3F0"/>
<path d="M455.236 891.442L520.29 928.998M520.29 928.998L455.238 891.44L455.243 966.556L520.296 1004.11M520.29 928.998L520.296 1004.11M520.296 1004.11L520.302 928.998" stroke="white" stroke-width="3" stroke-linecap="round" stroke-linejoin="round"/>
<path d="M455.236 447.884L520.29 410.329L585.344 447.884L520.29 485.44L455.236 447.884Z" fill="#E3EFFB"/>
<path d="M520.29 485.44L585.344 447.884L520.29 410.329L455.236 447.884L520.29 485.44ZM520.29 485.44L455.238 447.882M585.354 447.882L520.302 485.44" stroke="white" stroke-width="3" stroke-linecap="round" stroke-linejoin="round"/>
<path d="M585.366 447.44L520.313 484.998L520.307 560.114L585.36 522.556L585.366 447.44Z" fill="#0B6BCB"/>
<path d="M585.356 447.442L520.302 484.998L520.307 560.114M520.307 560.114L520.313 484.998L585.366 447.44L585.36 522.556L520.307 560.114Z" stroke="white" stroke-width="3" stroke-linecap="round" stroke-linejoin="round"/>
<path d="M455.238 447.44L520.29 484.998L520.296 560.114L455.243 522.556L455.238 447.44Z" fill="#97C3F0"/>
<path d="M455.236 447.442L520.29 484.998M520.29 484.998L455.238 447.44L455.243 522.556L520.296 560.114M520.29 484.998L520.296 560.114M520.296 560.114L520.302 484.998" stroke="white" stroke-width="3" stroke-linecap="round" stroke-linejoin="round"/>
<path d="M455.236 669.884L520.29 632.329L585.344 669.884L520.29 707.44L455.236 669.884Z" fill="#E3EFFB"/>
<path d="M520.29 707.44L585.344 669.884L520.29 632.329L455.236 669.884L520.29 707.44ZM520.29 707.44L455.238 669.882M585.354 669.882L520.302 707.44" stroke="white" stroke-width="3" stroke-linecap="round" stroke-linejoin="round"/>
<path d="M585.366 669.44L520.313 706.998L520.307 782.114L585.36 744.556L585.366 669.44Z" fill="#0B6BCB"/>
<path d="M585.356 669.442L520.302 706.998L520.307 782.114M520.307 782.114L520.313 706.998L585.366 669.44L585.36 744.556L520.307 782.114Z" stroke="white" stroke-width="3" stroke-linecap="round" stroke-linejoin="round"/>
<path d="M455.238 669.44L520.29 706.998L520.296 782.114L455.243 744.556L455.238 669.44Z" fill="#97C3F0"/>
<path d="M455.236 669.442L520.29 706.998M520.29 706.998L455.238 669.44L455.243 744.556L520.296 782.114M520.29 706.998L520.296 782.114M520.296 782.114L520.302 706.998" stroke="white" stroke-width="3" stroke-linecap="round" stroke-linejoin="round"/>
<ellipse cx="12.7198" cy="27.6336" rx="12.7198" ry="27.6336" transform="matrix(4.37114e-08 1 0.865988 -0.500065 528.903 726.875)" fill="white"/>
<circle cx="8.56084" cy="8.56084" r="8.56084" transform="matrix(4.37114e-08 1 0.865988 -0.500065 545.42 721.497)" fill="#0B6BCB"/>
<path d="M455.236 225.884L520.29 188.329L585.344 225.884L520.29 263.44L455.236 225.884Z" fill="#E3EFFB"/>
<path d="M520.29 263.44L585.344 225.884L520.29 188.329L455.236 225.884L520.29 263.44ZM520.29 263.44L455.238 225.882M585.354 225.882L520.302 263.44" stroke="white" stroke-width="3" stroke-linecap="round" stroke-linejoin="round"/>
<path d="M585.366 225.44L520.313 262.998L520.307 338.114L585.36 300.556L585.366 225.44Z" fill="#0B6BCB"/>
<path d="M585.356 225.442L520.302 262.998L520.307 338.114M520.307 338.114L520.313 262.998L585.366 225.44L585.36 300.556L520.307 338.114Z" stroke="white" stroke-width="3" stroke-linecap="round" stroke-linejoin="round"/>
<path d="M455.238 225.44L520.29 262.998L520.296 338.114L455.243 300.556L455.238 225.44Z" fill="#97C3F0"/>
<path d="M455.236 225.442L520.29 262.998M520.29 262.998L455.238 225.44L455.243 300.556L520.296 338.114M520.29 262.998L520.296 338.114M520.296 338.114L520.302 262.998" stroke="white" stroke-width="3" stroke-linecap="round" stroke-linejoin="round"/>
<path d="M455.236 0.654209L520.29 -36.9014L585.344 0.654205L520.29 38.2098L455.236 0.654209Z" fill="#E3EFFB"/>
<path d="M520.29 38.2098L585.344 0.654205L520.29 -36.9014L455.236 0.654209L520.29 38.2098ZM520.29 38.2098L455.238 0.651707M585.354 0.65173L520.302 38.2097" stroke="white" stroke-width="3" stroke-linecap="round" stroke-linejoin="round"/>
<path d="M585.366 0.209961L520.313 37.768L520.307 112.884L585.36 75.326L585.366 0.209961Z" fill="#0B6BCB"/>
<path d="M585.356 0.212437L520.302 37.768L520.307 112.884M520.307 112.884L520.313 37.768L585.366 0.209961L585.36 75.326L520.307 112.884Z" stroke="white" stroke-width="3" stroke-linecap="round" stroke-linejoin="round"/>
<path d="M455.238 0.209961L520.29 37.768L520.296 112.884L455.243 75.326L455.238 0.209961Z" fill="#97C3F0"/>
<path d="M455.236 0.212464L520.29 37.768M520.29 37.768L455.238 0.209961L455.243 75.326L520.296 112.884M520.29 37.768L520.296 112.884M520.296 112.884L520.302 37.768" stroke="white" stroke-width="3" stroke-linecap="round" stroke-linejoin="round"/>
<path d="M390.177 1004.88L455.231 967.328L520.285 1004.88L455.231 1042.44L390.177 1004.88Z" fill="#E3EFFB"/>
<path d="M455.231 1042.44L520.285 1004.88L455.231 967.328L390.177 1004.88L455.231 1042.44ZM455.231 1042.44L390.179 1004.88M520.295 1004.88L455.243 1042.44" stroke="white" stroke-width="3" stroke-linecap="round" stroke-linejoin="round"/>
<path d="M520.307 1004.44L455.254 1042L455.248 1117.11L520.301 1079.56L520.307 1004.44Z" fill="#0B6BCB"/>
<path d="M520.297 1004.44L455.243 1042L455.248 1117.11M455.248 1117.11L455.254 1042L520.307 1004.44L520.301 1079.56L455.248 1117.11Z" stroke="white" stroke-width="3" stroke-linecap="round" stroke-linejoin="round"/>
<path d="M390.179 1004.44L455.231 1042L455.237 1117.11L390.184 1079.56L390.179 1004.44Z" fill="#97C3F0"/>
<path d="M390.177 1004.44L455.231 1042M455.231 1042L390.179 1004.44L390.184 1079.56L455.237 1117.11M455.231 1042L455.237 1117.11M455.237 1117.11L455.243 1042" stroke="white" stroke-width="3" stroke-linecap="round" stroke-linejoin="round"/>
<path d="M390.177 560.884L455.231 523.328L520.285 560.884L455.231 598.439L390.177 560.884Z" fill="#E3EFFB"/>
<path d="M455.231 598.439L520.285 560.884L455.231 523.328L390.177 560.884L455.231 598.439ZM455.231 598.439L390.179 560.881M520.295 560.881L455.243 598.439" stroke="white" stroke-width="3" stroke-linecap="round" stroke-linejoin="round"/>
<path d="M520.307 560.439L455.254 597.997L455.248 673.114L520.301 635.555L520.307 560.439Z" fill="#0B6BCB"/>
<path d="M520.297 560.442L455.243 597.998L455.248 673.114M455.248 673.114L455.254 597.997L520.307 560.439L520.301 635.555L455.248 673.114Z" stroke="white" stroke-width="3" stroke-linecap="round" stroke-linejoin="round"/>
<path d="M390.179 560.439L455.231 597.998L455.237 673.114L390.184 635.556L390.179 560.439Z" fill="#97C3F0"/>
<path d="M390.177 560.442L455.231 597.998M455.231 597.998L390.179 560.439L390.184 635.556L455.237 673.114M455.231 597.998L455.237 673.114M455.237 673.114L455.243 597.997" stroke="white" stroke-width="3" stroke-linecap="round" stroke-linejoin="round"/>
<path d="M390.177 782.884L455.231 745.329L520.285 782.884L455.231 820.44L390.177 782.884Z" fill="#E3EFFB"/>
<path d="M455.231 820.44L520.285 782.884L455.231 745.329L390.177 782.884L455.231 820.44ZM455.231 820.44L390.179 782.882M520.295 782.882L455.243 820.44" stroke="white" stroke-width="3" stroke-linecap="round" stroke-linejoin="round"/>
<path d="M520.307 782.44L455.254 819.998L455.248 895.114L520.301 857.556L520.307 782.44Z" fill="#0B6BCB"/>
<path d="M520.297 782.442L455.243 819.998L455.248 895.114M455.248 895.114L455.254 819.998L520.307 782.44L520.301 857.556L455.248 895.114Z" stroke="white" stroke-width="3" stroke-linecap="round" stroke-linejoin="round"/>
<path d="M390.179 782.44L455.231 819.998L455.237 895.114L390.184 857.556L390.179 782.44Z" fill="#97C3F0"/>
<path d="M390.177 782.442L455.231 819.998M455.231 819.998L390.179 782.44L390.184 857.556L455.237 895.114M455.231 819.998L455.237 895.114M455.237 895.114L455.243 819.998" stroke="white" stroke-width="3" stroke-linecap="round" stroke-linejoin="round"/>
<path d="M390.177 338.884L455.231 301.329L520.285 338.884L455.231 376.44L390.177 338.884Z" fill="#E3EFFB"/>
<path d="M455.231 376.44L520.285 338.884L455.231 301.329L390.177 338.884L455.231 376.44ZM455.231 376.44L390.179 338.882M520.295 338.882L455.243 376.44" stroke="white" stroke-width="3" stroke-linecap="round" stroke-linejoin="round"/>
<path d="M520.307 338.44L455.254 375.998L455.248 451.114L520.301 413.556L520.307 338.44Z" fill="#0B6BCB"/>
<path d="M520.297 338.442L455.243 375.998L455.248 451.114M455.248 451.114L455.254 375.998L520.307 338.44L520.301 413.556L455.248 451.114Z" stroke="white" stroke-width="3" stroke-linecap="round" stroke-linejoin="round"/>
<path d="M390.179 338.44L455.231 375.998L455.237 451.114L390.184 413.556L390.179 338.44Z" fill="#97C3F0"/>
<path d="M390.177 338.442L455.231 375.998M455.231 375.998L390.179 338.44L390.184 413.556L455.237 451.114M455.231 375.998L455.237 451.114M455.237 451.114L455.243 375.998" stroke="white" stroke-width="3" stroke-linecap="round" stroke-linejoin="round"/>
<ellipse cx="12.7198" cy="27.6336" rx="12.7198" ry="27.6336" transform="matrix(4.37114e-08 1 0.865988 -0.500065 463.844 395.875)" fill="white"/>
<circle cx="8.56084" cy="8.56084" r="8.56084" transform="matrix(4.37114e-08 1 0.865988 -0.500065 480.361 390.497)" fill="#0B6BCB"/>
<path d="M390.177 113.654L455.231 76.0986L520.285 113.654L455.231 151.21L390.177 113.654Z" fill="#E3EFFB"/>
<path d="M455.231 151.21L520.285 113.654L455.231 76.0986L390.177 113.654L455.231 151.21ZM455.231 151.21L390.179 113.652M520.295 113.652L455.243 151.21" stroke="white" stroke-width="3" stroke-linecap="round" stroke-linejoin="round"/>
<path d="M520.307 113.21L455.254 150.768L455.248 225.884L520.301 188.326L520.307 113.21Z" fill="#0B6BCB"/>
<path d="M520.297 113.212L455.243 150.768L455.248 225.884M455.248 225.884L455.254 150.768L520.307 113.21L520.301 188.326L455.248 225.884Z" stroke="white" stroke-width="3" stroke-linecap="round" stroke-linejoin="round"/>
<path d="M390.179 113.21L455.231 150.768L455.237 225.884L390.184 188.326L390.179 113.21Z" fill="#97C3F0"/>
<path d="M390.177 113.212L455.231 150.768M455.231 150.768L390.179 113.21L390.184 188.326L455.237 225.884M455.231 150.768L455.237 225.884M455.237 225.884L455.243 150.768" stroke="white" stroke-width="3" stroke-linecap="round" stroke-linejoin="round"/>
<path d="M520.295 1004.88L585.349 967.328L650.403 1004.88L585.349 1042.44L520.295 1004.88Z" fill="#E3EFFB"/>
<path d="M585.349 1042.44L650.403 1004.88L585.349 967.328L520.295 1004.88L585.349 1042.44ZM585.349 1042.44L520.297 1004.88M650.413 1004.88L585.361 1042.44" stroke="white" stroke-width="3" stroke-linecap="round" stroke-linejoin="round"/>
<path d="M650.425 1004.44L585.372 1042L585.366 1117.11L650.419 1079.56L650.425 1004.44Z" fill="#0B6BCB"/>
<path d="M650.415 1004.44L585.361 1042L585.366 1117.11M585.366 1117.11L585.372 1042L650.425 1004.44L650.419 1079.56L585.366 1117.11Z" stroke="white" stroke-width="3" stroke-linecap="round" stroke-linejoin="round"/>
<path d="M520.297 1004.44L585.349 1042L585.355 1117.11L520.302 1079.56L520.297 1004.44Z" fill="#97C3F0"/>
<path d="M520.295 1004.44L585.349 1042M585.349 1042L520.297 1004.44L520.302 1079.56L585.355 1117.11M585.349 1042L585.355 1117.11M585.355 1117.11L585.361 1042" stroke="white" stroke-width="3" stroke-linecap="round" stroke-linejoin="round"/>
<path d="M650 1004.88L715.054 967.328L780.108 1004.88L715.054 1042.44L650 1004.88Z" fill="#E3EFFB"/>
<path d="M715.054 1042.44L780.108 1004.88L715.054 967.328L650 1004.88L715.054 1042.44ZM715.054 1042.44L650.001 1004.88M780.118 1004.88L715.065 1042.44" stroke="white" stroke-width="3" stroke-linecap="round" stroke-linejoin="round"/>
<path d="M780.129 1004.44L715.077 1042L715.071 1117.11L780.124 1079.56L780.129 1004.44Z" fill="#0B6BCB"/>
<path d="M780.119 1004.44L715.065 1042L715.071 1117.11M715.071 1117.11L715.077 1042L780.129 1004.44L780.124 1079.56L715.071 1117.11Z" stroke="white" stroke-width="3" stroke-linecap="round" stroke-linejoin="round"/>
<path d="M650.001 1004.44L715.054 1042L715.059 1117.11L650.007 1079.56L650.001 1004.44Z" fill="#97C3F0"/>
<path d="M650 1004.44L715.054 1042M715.054 1042L650.001 1004.44L650.007 1079.56L715.059 1117.11M715.054 1042L715.059 1117.11M715.059 1117.11L715.065 1042" stroke="white" stroke-width="3" stroke-linecap="round" stroke-linejoin="round"/>
<path d="M780 1004.88L845.054 967.328L910.108 1004.88L845.054 1042.44L780 1004.88Z" fill="#E3EFFB"/>
<path d="M845.054 1042.44L910.108 1004.88L845.054 967.328L780 1004.88L845.054 1042.44ZM845.054 1042.44L780.001 1004.88M910.118 1004.88L845.065 1042.44" stroke="white" stroke-width="3" stroke-linecap="round" stroke-linejoin="round"/>
<path d="M780.001 1004.44L845.054 1042L845.059 1117.11L780.007 1079.56L780.001 1004.44Z" fill="#97C3F0"/>
<path d="M780 1004.44L845.054 1042M845.054 1042L780.001 1004.44L780.007 1079.56L845.059 1117.11M845.054 1042L845.059 1117.11M845.059 1117.11L845.065 1042" stroke="white" stroke-width="3" stroke-linecap="round" stroke-linejoin="round"/>
<path d="M520.295 560.884L585.349 523.328L650.403 560.884L585.349 598.439L520.295 560.884Z" fill="#E3EFFB"/>
<path d="M585.349 598.439L650.403 560.884L585.349 523.328L520.295 560.884L585.349 598.439ZM585.349 598.439L520.297 560.881M650.413 560.881L585.361 598.439" stroke="white" stroke-width="3" stroke-linecap="round" stroke-linejoin="round"/>
<path d="M650.425 560.439L585.372 597.997L585.366 673.114L650.419 635.555L650.425 560.439Z" fill="#0B6BCB"/>
<path d="M650.415 560.442L585.361 597.998L585.366 673.114M585.366 673.114L585.372 597.997L650.425 560.439L650.419 635.555L585.366 673.114Z" stroke="white" stroke-width="3" stroke-linecap="round" stroke-linejoin="round"/>
<path d="M520.297 560.439L585.349 597.998L585.355 673.114L520.302 635.556L520.297 560.439Z" fill="#97C3F0"/>
<path d="M520.295 560.442L585.349 597.998M585.349 597.998L520.297 560.439L520.302 635.556L585.355 673.114M585.349 597.998L585.355 673.114M585.355 673.114L585.361 597.997" stroke="white" stroke-width="3" stroke-linecap="round" stroke-linejoin="round"/>
<path d="M650 560.884L715.054 523.328L780.108 560.884L715.054 598.439L650 560.884Z" fill="#E3EFFB"/>
<path d="M715.054 598.439L780.108 560.884L715.054 523.328L650 560.884L715.054 598.439ZM715.054 598.439L650.001 560.881M780.118 560.881L715.065 598.439" stroke="white" stroke-width="3" stroke-linecap="round" stroke-linejoin="round"/>
<path d="M780.129 560.439L715.077 597.997L715.071 673.114L780.124 635.555L780.129 560.439Z" fill="#0B6BCB"/>
<path d="M780.119 560.442L715.065 597.998L715.071 673.114M715.071 673.114L715.077 597.997L780.129 560.439L780.124 635.555L715.071 673.114Z" stroke="white" stroke-width="3" stroke-linecap="round" stroke-linejoin="round"/>
<path d="M650.001 560.439L715.054 597.998L715.059 673.114L650.007 635.556L650.001 560.439Z" fill="#97C3F0"/>
<path d="M650 560.442L715.054 597.998M715.054 597.998L650.001 560.439L650.007 635.556L715.059 673.114M715.054 597.998L715.059 673.114M715.059 673.114L715.065 597.997" stroke="white" stroke-width="3" stroke-linecap="round" stroke-linejoin="round"/>
<path d="M780 560.884L845.054 523.328L910.108 560.884L845.054 598.439L780 560.884Z" fill="#E3EFFB"/>
<path d="M845.054 598.439L910.108 560.884L845.054 523.328L780 560.884L845.054 598.439ZM845.054 598.439L780.001 560.881M910.118 560.881L845.065 598.439" stroke="white" stroke-width="3" stroke-linecap="round" stroke-linejoin="round"/>
<path d="M780.001 560.439L845.054 597.998L845.059 673.114L780.007 635.556L780.001 560.439Z" fill="#97C3F0"/>
<path d="M780 560.442L845.054 597.998M845.054 597.998L780.001 560.439L780.007 635.556L845.059 673.114M845.054 597.998L845.059 673.114M845.059 673.114L845.065 597.997" stroke="white" stroke-width="3" stroke-linecap="round" stroke-linejoin="round"/>
<path d="M520.295 782.884L585.349 745.329L650.403 782.884L585.349 820.44L520.295 782.884Z" fill="#E3EFFB"/>
<path d="M585.349 820.44L650.403 782.884L585.349 745.329L520.295 782.884L585.349 820.44ZM585.349 820.44L520.297 782.882M650.413 782.882L585.361 820.44" stroke="white" stroke-width="3" stroke-linecap="round" stroke-linejoin="round"/>
<path d="M650.425 782.44L585.372 819.998L585.366 895.114L650.419 857.556L650.425 782.44Z" fill="#0B6BCB"/>
<path d="M650.415 782.442L585.361 819.998L585.366 895.114M585.366 895.114L585.372 819.998L650.425 782.44L650.419 857.556L585.366 895.114Z" stroke="white" stroke-width="3" stroke-linecap="round" stroke-linejoin="round"/>
<path d="M520.297 782.44L585.349 819.998L585.355 895.114L520.302 857.556L520.297 782.44Z" fill="#97C3F0"/>
<path d="M520.295 782.442L585.349 819.998M585.349 819.998L520.297 782.44L520.302 857.556L585.355 895.114M585.349 819.998L585.355 895.114M585.355 895.114L585.361 819.998" stroke="white" stroke-width="3" stroke-linecap="round" stroke-linejoin="round"/>
<path d="M650 782.884L715.054 745.329L780.108 782.884L715.054 820.44L650 782.884Z" fill="#E3EFFB"/>
<path d="M715.054 820.44L780.108 782.884L715.054 745.329L650 782.884L715.054 820.44ZM715.054 820.44L650.001 782.882M780.118 782.882L715.065 820.44" stroke="white" stroke-width="3" stroke-linecap="round" stroke-linejoin="round"/>
<path d="M780.129 782.44L715.077 819.998L715.071 895.114L780.124 857.556L780.129 782.44Z" fill="#0B6BCB"/>
<path d="M780.119 782.442L715.065 819.998L715.071 895.114M715.071 895.114L715.077 819.998L780.129 782.44L780.124 857.556L715.071 895.114Z" stroke="white" stroke-width="3" stroke-linecap="round" stroke-linejoin="round"/>
<path d="M650.001 782.44L715.054 819.998L715.059 895.114L650.007 857.556L650.001 782.44Z" fill="#97C3F0"/>
<path d="M650 782.442L715.054 819.998M715.054 819.998L650.001 782.44L650.007 857.556L715.059 895.114M715.054 819.998L715.059 895.114M715.059 895.114L715.065 819.998" stroke="white" stroke-width="3" stroke-linecap="round" stroke-linejoin="round"/>
<ellipse cx="12.7198" cy="27.6336" rx="12.7198" ry="27.6336" transform="matrix(4.37114e-08 1 0.865988 -0.500065 723.667 839.875)" fill="white"/>
<circle cx="8.56084" cy="8.56084" r="8.56084" transform="matrix(4.37114e-08 1 0.865988 -0.500065 740.184 834.497)" fill="#0B6BCB"/>
<path d="M780 782.884L845.054 745.329L910.108 782.884L845.054 820.44L780 782.884Z" fill="#E3EFFB"/>
<path d="M845.054 820.44L910.108 782.884L845.054 745.329L780 782.884L845.054 820.44ZM845.054 820.44L780.001 782.882M910.118 782.882L845.065 820.44" stroke="white" stroke-width="3" stroke-linecap="round" stroke-linejoin="round"/>
<path d="M780.001 782.44L845.054 819.998L845.059 895.114L780.007 857.556L780.001 782.44Z" fill="#97C3F0"/>
<path d="M780 782.442L845.054 819.998M845.054 819.998L780.001 782.44L780.007 857.556L845.059 895.114M845.054 819.998L845.059 895.114M845.059 895.114L845.065 819.998" stroke="white" stroke-width="3" stroke-linecap="round" stroke-linejoin="round"/>
<path d="M520.295 338.884L585.349 301.329L650.403 338.884L585.349 376.44L520.295 338.884Z" fill="#E3EFFB"/>
<path d="M585.349 376.44L650.403 338.884L585.349 301.329L520.295 338.884L585.349 376.44ZM585.349 376.44L520.297 338.882M650.413 338.882L585.361 376.44" stroke="white" stroke-width="3" stroke-linecap="round" stroke-linejoin="round"/>
<path d="M650.425 338.44L585.372 375.998L585.366 451.114L650.419 413.556L650.425 338.44Z" fill="#0B6BCB"/>
<path d="M650.415 338.442L585.361 375.998L585.366 451.114M585.366 451.114L585.372 375.998L650.425 338.44L650.419 413.556L585.366 451.114Z" stroke="white" stroke-width="3" stroke-linecap="round" stroke-linejoin="round"/>
<path d="M520.297 338.44L585.349 375.998L585.355 451.114L520.302 413.556L520.297 338.44Z" fill="#97C3F0"/>
<path d="M520.295 338.442L585.349 375.998M585.349 375.998L520.297 338.44L520.302 413.556L585.355 451.114M585.349 375.998L585.355 451.114M585.355 451.114L585.361 375.998" stroke="white" stroke-width="3" stroke-linecap="round" stroke-linejoin="round"/>
<path d="M650 338.884L715.054 301.329L780.108 338.884L715.054 376.44L650 338.884Z" fill="#E3EFFB"/>
<path d="M715.054 376.44L780.108 338.884L715.054 301.329L650 338.884L715.054 376.44ZM715.054 376.44L650.001 338.882M780.118 338.882L715.065 376.44" stroke="white" stroke-width="3" stroke-linecap="round" stroke-linejoin="round"/>
<path d="M780.129 338.44L715.077 375.998L715.071 451.114L780.124 413.556L780.129 338.44Z" fill="#0B6BCB"/>
<path d="M780.119 338.442L715.065 375.998L715.071 451.114M715.071 451.114L715.077 375.998L780.129 338.44L780.124 413.556L715.071 451.114Z" stroke="white" stroke-width="3" stroke-linecap="round" stroke-linejoin="round"/>
<path d="M650.001 338.44L715.054 375.998L715.059 451.114L650.007 413.556L650.001 338.44Z" fill="#97C3F0"/>
<path d="M650 338.442L715.054 375.998M715.054 375.998L650.001 338.44L650.007 413.556L715.059 451.114M715.054 375.998L715.059 451.114M715.059 451.114L715.065 375.998" stroke="white" stroke-width="3" stroke-linecap="round" stroke-linejoin="round"/>
<path d="M780 338.884L845.054 301.329L910.108 338.884L845.054 376.44L780 338.884Z" fill="#E3EFFB"/>
<path d="M845.054 376.44L910.108 338.884L845.054 301.329L780 338.884L845.054 376.44ZM845.054 376.44L780.001 338.882M910.118 338.882L845.065 376.44" stroke="white" stroke-width="3" stroke-linecap="round" stroke-linejoin="round"/>
<path d="M780.001 338.44L845.054 375.998L845.059 451.114L780.007 413.556L780.001 338.44Z" fill="#97C3F0"/>
<path d="M780 338.442L845.054 375.998M845.054 375.998L780.001 338.44L780.007 413.556L845.059 451.114M845.054 375.998L845.059 451.114M845.059 451.114L845.065 375.998" stroke="white" stroke-width="3" stroke-linecap="round" stroke-linejoin="round"/>
<path d="M520.295 113.654L585.349 76.0986L650.403 113.654L585.349 151.21L520.295 113.654Z" fill="#E3EFFB"/>
<path d="M585.349 151.21L650.403 113.654L585.349 76.0986L520.295 113.654L585.349 151.21ZM585.349 151.21L520.297 113.652M650.413 113.652L585.361 151.21" stroke="white" stroke-width="3" stroke-linecap="round" stroke-linejoin="round"/>
<path d="M650.425 113.21L585.372 150.768L585.366 225.884L650.419 188.326L650.425 113.21Z" fill="#0B6BCB"/>
<path d="M650.415 113.212L585.361 150.768L585.366 225.884M585.366 225.884L585.372 150.768L650.425 113.21L650.419 188.326L585.366 225.884Z" stroke="white" stroke-width="3" stroke-linecap="round" stroke-linejoin="round"/>
<path d="M520.297 113.21L585.349 150.768L585.355 225.884L520.302 188.326L520.297 113.21Z" fill="#97C3F0"/>
<path d="M520.295 113.212L585.349 150.768M585.349 150.768L520.297 113.21L520.302 188.326L585.355 225.884M585.349 150.768L585.355 225.884M585.355 225.884L585.361 150.768" stroke="white" stroke-width="3" stroke-linecap="round" stroke-linejoin="round"/>
<ellipse cx="12.7198" cy="27.6336" rx="12.7198" ry="27.6336" transform="matrix(4.37114e-08 1 0.865988 -0.500065 593.962 170.646)" fill="white"/>
<circle cx="8.56084" cy="8.56084" r="8.56084" transform="matrix(4.37114e-08 1 0.865988 -0.500065 610.479 165.267)" fill="#0B6BCB"/>
<path d="M650 113.654L715.054 76.0986L780.108 113.654L715.054 151.21L650 113.654Z" fill="#E3EFFB"/>
<path d="M715.054 151.21L780.108 113.654L715.054 76.0986L650 113.654L715.054 151.21ZM715.054 151.21L650.001 113.652M780.118 113.652L715.065 151.21" stroke="white" stroke-width="3" stroke-linecap="round" stroke-linejoin="round"/>
<path d="M780.129 113.21L715.077 150.768L715.071 225.884L780.124 188.326L780.129 113.21Z" fill="#0B6BCB"/>
<path d="M780.119 113.212L715.065 150.768L715.071 225.884M715.071 225.884L715.077 150.768L780.129 113.21L780.124 188.326L715.071 225.884Z" stroke="white" stroke-width="3" stroke-linecap="round" stroke-linejoin="round"/>
<path d="M650.001 113.21L715.054 150.768L715.059 225.884L650.007 188.326L650.001 113.21Z" fill="#97C3F0"/>
<path d="M650 113.212L715.054 150.768M715.054 150.768L650.001 113.21L650.007 188.326L715.059 225.884M715.054 150.768L715.059 225.884M715.059 225.884L715.065 150.768" stroke="white" stroke-width="3" stroke-linecap="round" stroke-linejoin="round"/>
<path d="M780 113.654L845.054 76.0986L910.108 113.654L845.054 151.21L780 113.654Z" fill="#E3EFFB"/>
<path d="M845.054 151.21L910.108 113.654L845.054 76.0986L780 113.654L845.054 151.21ZM845.054 151.21L780.001 113.652M910.118 113.652L845.065 151.21" stroke="white" stroke-width="3" stroke-linecap="round" stroke-linejoin="round"/>
<path d="M780.001 113.21L845.054 150.768L845.059 225.884L780.007 188.326L780.001 113.21Z" fill="#97C3F0"/>
<path d="M780 113.212L845.054 150.768M845.054 150.768L780.001 113.21L780.007 188.326L845.059 225.884M845.054 150.768L845.059 225.884M845.059 225.884L845.065 150.768" stroke="white" stroke-width="3" stroke-linecap="round" stroke-linejoin="round"/>
<path d="M585.354 891.884L650.408 854.329L715.462 891.884L650.408 929.44L585.354 891.884Z" fill="#E3EFFB"/>
<path d="M650.408 929.44L715.462 891.884L650.408 854.329L585.354 891.884L650.408 929.44ZM650.408 929.44L585.356 891.882M715.472 891.882L650.42 929.44" stroke="white" stroke-width="3" stroke-linecap="round" stroke-linejoin="round"/>
<path d="M715.484 891.44L650.431 928.998L650.426 1004.11L715.478 966.556L715.484 891.44Z" fill="#0B6BCB"/>
<path d="M715.474 891.442L650.42 928.998L650.426 1004.11M650.426 1004.11L650.431 928.998L715.484 891.44L715.478 966.556L650.426 1004.11Z" stroke="white" stroke-width="3" stroke-linecap="round" stroke-linejoin="round"/>
<path d="M585.356 891.44L650.408 928.998L650.414 1004.11L585.362 966.556L585.356 891.44Z" fill="#97C3F0"/>
<path d="M585.354 891.442L650.408 928.998M650.408 928.998L585.356 891.44L585.362 966.556L650.414 1004.11M650.408 928.998L650.414 1004.11M650.414 1004.11L650.42 928.998" stroke="white" stroke-width="3" stroke-linecap="round" stroke-linejoin="round"/>
<path d="M715.059 891.884L780.113 854.329L845.167 891.884L780.113 929.44L715.059 891.884Z" fill="#E3EFFB"/>
<path d="M780.113 929.44L845.167 891.884L780.113 854.329L715.059 891.884L780.113 929.44ZM780.113 929.44L715.06 891.882M845.177 891.882L780.124 929.44" stroke="white" stroke-width="3" stroke-linecap="round" stroke-linejoin="round"/>
<path d="M845.188 891.44L780.136 928.998L780.13 1004.11L845.183 966.556L845.188 891.44Z" fill="#0B6BCB"/>
<path d="M845.178 891.442L780.125 928.998L780.13 1004.11M780.13 1004.11L780.136 928.998L845.188 891.44L845.183 966.556L780.13 1004.11Z" stroke="white" stroke-width="3" stroke-linecap="round" stroke-linejoin="round"/>
<path d="M715.06 891.44L780.113 928.998L780.119 1004.11L715.066 966.556L715.06 891.44Z" fill="#97C3F0"/>
<path d="M715.059 891.442L780.113 928.998M780.113 928.998L715.06 891.44L715.066 966.556L780.119 1004.11M780.113 928.998L780.119 1004.11M780.119 1004.11L780.124 928.998" stroke="white" stroke-width="3" stroke-linecap="round" stroke-linejoin="round"/>
<path d="M585.354 447.884L650.408 410.329L715.462 447.884L650.408 485.44L585.354 447.884Z" fill="#E3EFFB"/>
<path d="M650.408 485.44L715.462 447.884L650.408 410.329L585.354 447.884L650.408 485.44ZM650.408 485.44L585.356 447.882M715.472 447.882L650.42 485.44" stroke="white" stroke-width="3" stroke-linecap="round" stroke-linejoin="round"/>
<path d="M715.484 447.44L650.431 484.998L650.426 560.114L715.478 522.556L715.484 447.44Z" fill="#0B6BCB"/>
<path d="M715.474 447.442L650.42 484.998L650.426 560.114M650.426 560.114L650.431 484.998L715.484 447.44L715.478 522.556L650.426 560.114Z" stroke="white" stroke-width="3" stroke-linecap="round" stroke-linejoin="round"/>
<path d="M585.356 447.44L650.408 484.998L650.414 560.114L585.362 522.556L585.356 447.44Z" fill="#97C3F0"/>
<path d="M585.354 447.442L650.408 484.998M650.408 484.998L585.356 447.44L585.362 522.556L650.414 560.114M650.408 484.998L650.414 560.114M650.414 560.114L650.42 484.998" stroke="white" stroke-width="3" stroke-linecap="round" stroke-linejoin="round"/>
<ellipse cx="12.7198" cy="27.6336" rx="12.7198" ry="27.6336" transform="matrix(4.37114e-08 1 0.865988 -0.500065 659.021 504.875)" fill="white"/>
<circle cx="8.56084" cy="8.56084" r="8.56084" transform="matrix(4.37114e-08 1 0.865988 -0.500065 675.538 499.497)" fill="#0B6BCB"/>
<path d="M715.059 447.884L780.113 410.329L845.167 447.884L780.113 485.44L715.059 447.884Z" fill="#E3EFFB"/>
<path d="M780.113 485.44L845.167 447.884L780.113 410.329L715.059 447.884L780.113 485.44ZM780.113 485.44L715.06 447.882M845.177 447.882L780.124 485.44" stroke="white" stroke-width="3" stroke-linecap="round" stroke-linejoin="round"/>
<path d="M845.188 447.44L780.136 484.998L780.13 560.114L845.183 522.556L845.188 447.44Z" fill="#0B6BCB"/>
<path d="M845.178 447.442L780.125 484.998L780.13 560.114M780.13 560.114L780.136 484.998L845.188 447.44L845.183 522.556L780.13 560.114Z" stroke="white" stroke-width="3" stroke-linecap="round" stroke-linejoin="round"/>
<path d="M715.06 447.44L780.113 484.998L780.119 560.114L715.066 522.556L715.06 447.44Z" fill="#97C3F0"/>
<path d="M715.059 447.442L780.113 484.998M780.113 484.998L715.06 447.44L715.066 522.556L780.119 560.114M780.113 484.998L780.119 560.114M780.119 560.114L780.124 484.998" stroke="white" stroke-width="3" stroke-linecap="round" stroke-linejoin="round"/>
<path d="M585.354 669.884L650.408 632.329L715.462 669.884L650.408 707.44L585.354 669.884Z" fill="#E3EFFB"/>
<path d="M650.408 707.44L715.462 669.884L650.408 632.329L585.354 669.884L650.408 707.44ZM650.408 707.44L585.356 669.882M715.472 669.882L650.42 707.44" stroke="white" stroke-width="3" stroke-linecap="round" stroke-linejoin="round"/>
<path d="M715.484 669.44L650.431 706.998L650.426 782.114L715.478 744.556L715.484 669.44Z" fill="#0B6BCB"/>
<path d="M715.474 669.442L650.42 706.998L650.426 782.114M650.426 782.114L650.431 706.998L715.484 669.44L715.478 744.556L650.426 782.114Z" stroke="white" stroke-width="3" stroke-linecap="round" stroke-linejoin="round"/>
<path d="M585.356 669.44L650.408 706.998L650.414 782.114L585.362 744.556L585.356 669.44Z" fill="#97C3F0"/>
<path d="M585.354 669.442L650.408 706.998M650.408 706.998L585.356 669.44L585.362 744.556L650.414 782.114M650.408 706.998L650.414 782.114M650.414 782.114L650.42 706.998" stroke="white" stroke-width="3" stroke-linecap="round" stroke-linejoin="round"/>
<path d="M715.059 669.884L780.113 632.329L845.167 669.884L780.113 707.44L715.059 669.884Z" fill="#E3EFFB"/>
<path d="M780.113 707.44L845.167 669.884L780.113 632.329L715.059 669.884L780.113 707.44ZM780.113 707.44L715.06 669.882M845.177 669.882L780.124 707.44" stroke="white" stroke-width="3" stroke-linecap="round" stroke-linejoin="round"/>
<path d="M845.188 669.44L780.136 706.998L780.13 782.114L845.183 744.556L845.188 669.44Z" fill="#0B6BCB"/>
<path d="M845.178 669.442L780.125 706.998L780.13 782.114M780.13 782.114L780.136 706.998L845.188 669.44L845.183 744.556L780.13 782.114Z" stroke="white" stroke-width="3" stroke-linecap="round" stroke-linejoin="round"/>
<path d="M715.06 669.44L780.113 706.998L780.119 782.114L715.066 744.556L715.06 669.44Z" fill="#97C3F0"/>
<path d="M715.059 669.442L780.113 706.998M780.113 706.998L715.06 669.44L715.066 744.556L780.119 782.114M780.113 706.998L780.119 782.114M780.119 782.114L780.124 706.998" stroke="white" stroke-width="3" stroke-linecap="round" stroke-linejoin="round"/>
<path d="M585.354 225.884L650.408 188.329L715.462 225.884L650.408 263.44L585.354 225.884Z" fill="#E3EFFB"/>
<path d="M650.408 263.44L715.462 225.884L650.408 188.329L585.354 225.884L650.408 263.44ZM650.408 263.44L585.356 225.882M715.472 225.882L650.42 263.44" stroke="white" stroke-width="3" stroke-linecap="round" stroke-linejoin="round"/>
<path d="M715.484 225.44L650.431 262.998L650.426 338.114L715.478 300.556L715.484 225.44Z" fill="#0B6BCB"/>
<path d="M715.474 225.442L650.42 262.998L650.426 338.114M650.426 338.114L650.431 262.998L715.484 225.44L715.478 300.556L650.426 338.114Z" stroke="white" stroke-width="3" stroke-linecap="round" stroke-linejoin="round"/>
<path d="M585.356 225.44L650.408 262.998L650.414 338.114L585.362 300.556L585.356 225.44Z" fill="#97C3F0"/>
<path d="M585.354 225.442L650.408 262.998M650.408 262.998L585.356 225.44L585.362 300.556L650.414 338.114M650.408 262.998L650.414 338.114M650.414 338.114L650.42 262.998" stroke="white" stroke-width="3" stroke-linecap="round" stroke-linejoin="round"/>
<path d="M715.059 225.884L780.113 188.329L845.167 225.884L780.113 263.44L715.059 225.884Z" fill="#E3EFFB"/>
<path d="M780.113 263.44L845.167 225.884L780.113 188.329L715.059 225.884L780.113 263.44ZM780.113 263.44L715.06 225.882M845.177 225.882L780.124 263.44" stroke="white" stroke-width="3" stroke-linecap="round" stroke-linejoin="round"/>
<path d="M845.188 225.44L780.136 262.998L780.13 338.114L845.183 300.556L845.188 225.44Z" fill="#0B6BCB"/>
<path d="M845.178 225.442L780.125 262.998L780.13 338.114M780.13 338.114L780.136 262.998L845.188 225.44L845.183 300.556L780.13 338.114Z" stroke="white" stroke-width="3" stroke-linecap="round" stroke-linejoin="round"/>
<path d="M715.06 225.44L780.113 262.998L780.119 338.114L715.066 300.556L715.06 225.44Z" fill="#97C3F0"/>
<path d="M715.059 225.442L780.113 262.998M780.113 262.998L715.06 225.44L715.066 300.556L780.119 338.114M780.113 262.998L780.119 338.114M780.119 338.114L780.124 262.998" stroke="white" stroke-width="3" stroke-linecap="round" stroke-linejoin="round"/>
<path d="M585.354 0.654209L650.408 -36.9014L715.462 0.654205L650.408 38.2098L585.354 0.654209Z" fill="#E3EFFB"/>
<path d="M650.408 38.2098L715.462 0.654205L650.408 -36.9014L585.354 0.654209L650.408 38.2098ZM650.408 38.2098L585.356 0.651707M715.472 0.65173L650.42 38.2097" stroke="white" stroke-width="3" stroke-linecap="round" stroke-linejoin="round"/>
<path d="M715.484 0.209961L650.431 37.768L650.426 112.884L715.478 75.326L715.484 0.209961Z" fill="#0B6BCB"/>
<path d="M715.474 0.212437L650.42 37.768L650.426 112.884M650.426 112.884L650.431 37.768L715.484 0.209961L715.478 75.326L650.426 112.884Z" stroke="white" stroke-width="3" stroke-linecap="round" stroke-linejoin="round"/>
<path d="M585.356 0.209961L650.408 37.768L650.414 112.884L585.362 75.326L585.356 0.209961Z" fill="#97C3F0"/>
<path d="M585.354 0.212464L650.408 37.768M650.408 37.768L585.356 0.209961L585.362 75.326L650.414 112.884M650.408 37.768L650.414 112.884M650.414 112.884L650.42 37.768" stroke="white" stroke-width="3" stroke-linecap="round" stroke-linejoin="round"/>
<path d="M715.059 0.654209L780.113 -36.9014L845.167 0.654205L780.113 38.2098L715.059 0.654209Z" fill="#E3EFFB"/>
<path d="M780.113 38.2098L845.167 0.654205L780.113 -36.9014L715.059 0.654209L780.113 38.2098ZM780.113 38.2098L715.06 0.651707M845.177 0.65173L780.124 38.2097" stroke="white" stroke-width="3" stroke-linecap="round" stroke-linejoin="round"/>
<path d="M845.188 0.209961L780.136 37.768L780.13 112.884L845.183 75.326L845.188 0.209961Z" fill="#0B6BCB"/>
<path d="M845.178 0.212437L780.125 37.768L780.13 112.884M780.13 112.884L780.136 37.768L845.188 0.209961L845.183 75.326L780.13 112.884Z" stroke="white" stroke-width="3" stroke-linecap="round" stroke-linejoin="round"/>
<path d="M715.06 0.209961L780.113 37.768L780.119 112.884L715.066 75.326L715.06 0.209961Z" fill="#97C3F0"/>
<path d="M715.059 0.212464L780.113 37.768M780.113 37.768L715.06 0.209961L715.066 75.326L780.119 112.884M780.113 37.768L780.119 112.884M780.119 112.884L780.124 37.768" stroke="white" stroke-width="3" stroke-linecap="round" stroke-linejoin="round"/>
<g style="mix-blend-mode:multiply" opacity="0.45">
<rect x="1856" y="1024" width="1856" height="1024" transform="rotate(-180 1856 1024)" fill="url(#paint0_linear_14_9385)"/>
</g>
</g>
<defs>
<linearGradient id="paint0_linear_14_9385" x1="1856" y1="1024" x2="2101.97" y2="2308.72" gradientUnits="userSpaceOnUse">
<stop stop-color="#3183FF"/>
<stop offset="0.743882" stop-color="white"/>
</linearGradient>
<clipPath id="clip0_14_9385">
<rect width="780" height="1024" fill="white"/>
</clipPath>
</defs>
</svg>
