<svg width="24" height="24" viewBox="0 0 24 24" fill="none" xmlns="http://www.w3.org/2000/svg">
<rect width="24" height="24" rx="12" fill="#00AFCA"/>
<path d="M11.9034 14.2673C14.0708 14.2673 15.8279 12.5103 15.8279 10.3429C15.8279 8.17549 14.0708 6.41846 11.9034 6.41846C9.73603 6.41846 7.979 8.17549 7.979 10.3429C7.979 12.5103 9.73603 14.2673 11.9034 14.2673Z" fill="#FFCC4D"/>
<path d="M11.9062 6.12247C12.139 6.11973 12.2239 5.97316 12.2239 5.7992C12.2239 5.56634 11.9062 3.75 11.9062 3.75C11.9062 3.75 11.5829 5.56634 11.5829 5.7992C11.5829 5.97316 11.6706 6.12247 11.9062 6.12247ZM11.9062 14.585C11.6706 14.5864 11.5829 14.7329 11.5829 14.9069C11.5829 15.1411 11.9062 16.9328 11.9062 16.9328C11.9062 16.9328 12.2239 15.1398 12.2239 14.9069C12.2253 14.7343 12.139 14.585 11.9062 14.585ZM10.809 14.4193C10.5829 14.3617 10.4638 14.4809 10.4186 14.6494C10.3583 14.874 10.1953 16.7123 10.1953 16.7123C10.1953 16.7123 10.9774 15.0398 11.0377 14.8151C11.0843 14.6466 11.0363 14.4795 10.809 14.4193ZM13.0006 6.24438C13.228 6.30465 13.3513 6.18411 13.3965 6.01699C13.4568 5.79098 13.6074 3.97601 13.6074 3.97601C13.6074 3.97601 12.8376 5.62387 12.776 5.85125C12.7308 6.01837 12.7746 6.18411 13.0006 6.24438ZM9.79121 13.9946C9.58711 13.8809 9.44054 13.9645 9.35425 14.1165C9.23782 14.3179 8.60498 16.0507 8.60498 16.0507C8.60498 16.0507 9.79258 14.6384 9.90901 14.4371C9.99668 14.285 9.99531 14.1124 9.79121 13.9946ZM14.0225 6.6649C14.2266 6.78271 14.3773 6.69778 14.4635 6.5471C14.5813 6.34437 15.1964 4.63214 15.1964 4.63214C15.1964 4.63214 14.0238 6.02521 13.906 6.22657C13.8211 6.37725 13.8211 6.54847 14.0225 6.6649ZM8.91729 13.3248C8.75017 13.1618 8.58717 13.2043 8.46389 13.3275C8.29951 13.4933 7.2393 15.0028 7.2393 15.0028C7.2393 15.0028 8.75291 13.9453 8.91729 13.7823C9.04057 13.659 9.0844 13.4892 8.91729 13.3248ZM14.9019 7.33884C15.069 7.50458 15.2347 7.46212 15.358 7.33884C15.5238 7.17446 16.5621 5.67729 16.5621 5.67729C16.5621 5.67729 15.0704 6.72106 14.906 6.88681C14.7827 7.01009 14.7375 7.17446 14.9019 7.33884ZM8.24883 12.4495C8.12966 12.2495 7.96118 12.2495 7.80913 12.3358C7.6064 12.4522 6.19278 13.6357 6.19278 13.6357C6.19278 13.6357 7.9283 13.0084 8.12966 12.8919C8.28171 12.8043 8.36663 12.6536 8.24883 12.4495ZM15.5772 8.21824C15.6964 8.42234 15.8689 8.42371 16.0183 8.33741C16.221 8.21961 17.6113 7.04433 17.6113 7.04433C17.6113 7.04433 15.9005 7.66485 15.6977 7.78128C15.547 7.86894 15.4621 8.01551 15.5772 8.21824ZM7.82831 11.4318C7.7653 11.2071 7.60092 11.1633 7.43244 11.2071C7.2078 11.2674 5.53529 12.0454 5.53529 12.0454C5.53529 12.0454 7.37354 11.8879 7.59818 11.8276C7.76667 11.7811 7.88858 11.6591 7.82831 11.4318ZM16.0004 9.2401C16.0635 9.46748 16.2278 9.51406 16.3963 9.46885C16.6223 9.40858 18.2702 8.63329 18.2702 8.63329C18.2702 8.63329 16.4566 8.78944 16.2292 8.84971C16.0621 8.89354 15.9402 9.01546 16.0004 9.2401ZM7.68448 10.34C7.68174 10.1072 7.53517 10.0222 7.36121 10.0222C7.12835 10.0222 5.31201 10.34 5.31201 10.34C5.31201 10.34 7.12835 10.6633 7.36121 10.6633C7.53517 10.6633 7.68448 10.5756 7.68448 10.34ZM16.147 10.34C16.1484 10.5756 16.295 10.6633 16.4689 10.6633C16.7031 10.6633 18.4948 10.34 18.4948 10.34C18.4948 10.34 16.7018 10.0222 16.4689 10.0222C16.295 10.0209 16.147 10.1072 16.147 10.34ZM7.82831 9.24832C7.88584 9.0223 7.76667 8.90313 7.59818 8.85793C7.37354 8.79766 5.53529 8.63465 5.53529 8.63465C5.53529 8.63465 7.2078 9.4168 7.43244 9.47707C7.60092 9.52227 7.76804 9.4757 7.82831 9.24832ZM16.0018 11.4386C15.9415 11.666 16.0621 11.7893 16.2292 11.8345C16.4552 11.8947 18.2702 12.0454 18.2702 12.0454C18.2702 12.0454 16.6223 11.2742 16.3949 11.214C16.2278 11.1701 16.0621 11.2126 16.0018 11.4386ZM8.2502 8.23057C8.36389 8.02784 8.28034 7.8799 8.12829 7.79361C7.92693 7.67718 6.19415 7.04433 6.19415 7.04433C6.19415 7.04433 7.6064 8.23194 7.80776 8.34837C7.95981 8.43604 8.1324 8.4333 8.2502 8.23057ZM15.5799 12.4618C15.4621 12.6659 15.547 12.8166 15.6977 12.9029C15.8991 13.0207 17.6127 13.6357 17.6127 13.6357C17.6127 13.6357 16.2196 12.4646 16.0183 12.3468C15.8676 12.2605 15.6964 12.2605 15.5799 12.4618ZM8.92003 7.35665C9.08303 7.18953 9.04057 7.02653 8.91729 6.90325C8.75154 6.73887 7.24204 5.67866 7.24204 5.67866C7.24204 5.67866 8.29952 7.19227 8.46252 7.35665C8.5858 7.47993 8.75428 7.52376 8.92003 7.35665ZM14.906 13.3412C14.7402 13.5084 14.7827 13.6755 14.906 13.7974C15.0704 13.9631 16.5675 15.0014 16.5675 15.0014C16.5675 15.0014 15.5238 13.5097 15.358 13.344C15.2347 13.2207 15.0704 13.1755 14.906 13.3412ZM9.79669 6.68682C9.99531 6.56765 9.99668 6.39916 9.91038 6.24712C9.79395 6.04576 8.61046 4.63077 8.61046 4.63077C8.61046 4.63077 9.23782 6.36629 9.35425 6.56765C9.44054 6.71969 9.59259 6.80462 9.79669 6.68682ZM14.028 14.0165C13.8252 14.1343 13.8225 14.3056 13.9088 14.4562C14.0266 14.659 15.2019 16.0493 15.2019 16.0493C15.2019 16.0493 14.5814 14.3371 14.4649 14.1343C14.3773 13.985 14.2293 13.8987 14.028 14.0165ZM10.8131 6.2663C11.0377 6.20329 11.0815 6.03891 11.0377 5.87043C10.9774 5.64578 10.1994 3.97328 10.1994 3.97328C10.1994 3.97328 10.3569 5.81153 10.4172 6.03617C10.4624 6.20466 10.5857 6.32657 10.8131 6.2663ZM13.0047 14.4398C12.7773 14.5028 12.7308 14.6672 12.776 14.8357C12.8362 15.0617 13.6115 16.7095 13.6115 16.7095C13.6115 16.7095 13.4554 14.8946 13.3951 14.6699C13.3513 14.5014 13.2294 14.3795 13.0047 14.4398Z" fill="#FFCC4D"/>
<path d="M15.7537 20.1121L15.703 20.134L15.6469 20.1422L15.6044 20.1504L15.5263 20.134L15.4921 20.1203L15.4606 20.1052L15.4236 20.0819L15.362 20.0381L15.3058 19.9929L15.2743 19.971L15.2346 19.9545L15.2072 19.9477H15.1675L15.0127 20.2696L14.9812 20.3148L14.951 20.3518L14.9195 20.3751L14.8921 20.3983L14.8524 20.4134H14.8154L14.7812 20.3983L14.7332 20.3751L14.7195 20.3518L14.7031 20.3285L14.6867 20.2983L14.6702 20.2627L14.6483 20.149L14.6031 20.186L14.5606 20.2394L14.4757 20.3682L14.425 20.4353L14.3716 20.4874L14.3428 20.5189L14.3059 20.5422L14.2689 20.5586L14.2237 20.5723H14.2018L14.162 20.5805L14.125 20.5723L14.0963 20.5586L14.0086 20.4531L13.91 20.3477L13.8429 20.4531L13.7648 20.5422L13.7278 20.5792L13.6936 20.6161L13.6566 20.6463L13.5867 20.6846L13.5497 20.6928H13.5128L13.4813 20.6846L13.4511 20.6682L13.4292 20.6449L13.4004 20.6093C13.3813 20.5535 13.3608 20.4983 13.3388 20.4435L13.3306 20.4052L13.3169 20.3764L13.3004 20.3614H13.284L13.0813 20.6928L13.0525 20.7216L12.9991 20.7449L12.8813 20.7737H12.8114L12.758 20.7586L12.7416 20.7504L12.7197 20.7271L12.7142 20.7134V20.6833L12.7416 20.3518L12.7197 20.36L12.6607 20.3888C12.6068 20.445 12.5543 20.5025 12.5032 20.5613L12.4361 20.6449L12.3525 20.7148L12.2745 20.7737L12.2306 20.7983L12.1402 20.812L12.1032 20.8038L12.0868 20.7983L12.0717 20.7819L12.0635 20.7586V20.7353L12.0717 20.6394L12.095 20.4874L12.08 20.3983L12.0485 20.3463L12.0033 20.4134L11.9293 20.5107C11.8677 20.5777 11.8047 20.6435 11.7403 20.7079C11.7042 20.7318 11.669 20.7569 11.6348 20.7833L11.5526 20.812L11.5362 20.8038H11.5129L11.4964 20.7901L11.491 20.7819L11.4745 20.7586L11.469 20.7353V20.7065L11.4608 20.6682L11.469 20.3833C11.3321 20.4764 11.1937 20.5668 11.054 20.6531L11.0019 20.6764L10.943 20.7065C10.8869 20.7202 10.8321 20.7339 10.7773 20.7504H10.7225L10.6718 20.7435L10.6252 20.7271L10.6485 20.6668L10.6937 20.5613L10.7225 20.5175L10.7554 20.4723L10.7841 20.4271L10.8609 20.3518L10.9444 20.2929L11.0403 20.2312L11.1389 20.186L11.2526 20.149L11.3649 20.1203L11.6211 20.0751L11.7485 20.0586C12.1265 20.0367 12.506 20.034 12.884 20.0367L13.2991 20.0134L13.4278 19.9984L13.6662 19.9532L13.7812 19.9217L13.8881 19.8778L13.9867 19.8326C14.0388 19.7915 14.0922 19.7504 14.147 19.7121L14.2196 19.6272L14.1415 19.4778L14.2031 19.4696L14.262 19.4559L14.3237 19.4258L14.3744 19.3874L14.3963 19.3737L14.4209 19.3505L14.4374 19.3203L14.4538 19.2984L14.4593 19.2683V19.2162L14.4428 19.1861L14.5716 19.1628L14.7086 19.1477L14.8524 19.1395H15.0017C15.2113 19.1477 15.4195 19.1601 15.6277 19.1765C15.9428 19.2148 16.2592 19.245 16.5756 19.2751L16.8591 19.2902V19.3943L16.8537 19.4409L16.8372 19.4847L16.8235 19.5299L16.8071 19.5669L16.7852 19.597C16.7591 19.6272 16.7304 19.6573 16.7016 19.6861L16.6345 19.7299L16.5619 19.76L16.4893 19.7765L16.4057 19.7915L16.2455 19.7765L16.1619 19.7532L16.0893 19.7148L16.0112 19.6778L15.9523 19.6244L15.8934 19.5655V19.6943C15.8825 19.7778 15.8688 19.86 15.8565 19.9436L15.8277 20.0217L15.8113 20.0532L15.7893 20.0751L15.7729 20.0984L15.7537 20.1121ZM9.70201 19.4039L9.87324 19.4792C9.90746 19.4506 9.94264 19.4232 9.97871 19.397L10.0458 19.3614L10.1061 19.3231L10.3321 19.2327L10.5266 19.1422L10.6252 19.1053L10.7924 19.0162L10.8595 18.9697C11.0293 18.8587 11.2006 18.7491 11.3718 18.6409L11.5211 18.5354L11.6348 18.445C11.7471 18.3437 11.8567 18.2409 11.9663 18.1368L12.0115 18.1067L12.0635 18.0766C12.1259 18.045 12.1889 18.0149 12.2526 17.9861L12.3799 17.9423C12.6347 17.8725 12.8936 17.8177 13.1539 17.7766C13.4196 17.7451 13.6853 17.7095 13.9511 17.6793L14.3045 17.619C14.3922 17.5944 14.4798 17.5725 14.5689 17.5519L14.6593 17.4382L14.8045 17.2807L14.9031 17.1835L15.0127 17.0917L15.1414 16.9944L15.2907 16.8958L15.5181 16.7616C15.6811 16.6794 15.8428 16.5972 16.0044 16.5123C16.292 16.378 16.5756 16.2356 16.8578 16.0904L16.992 16L17.029 15.8863L17.0824 15.7753L17.1495 15.6616L17.3235 15.4288C17.4029 15.3438 17.4797 15.2589 17.5564 15.1712C17.6495 15.0808 17.7454 14.9932 17.8426 14.9082L17.9878 14.7891L18.0604 14.7356L18.1385 14.6836C18.1933 14.6521 18.2481 14.622 18.3043 14.5932L18.3878 14.5548L18.4686 14.5261L18.6453 14.4795L18.733 14.474L18.8166 14.4658L18.9042 14.474L18.9878 14.4877L18.9823 14.5781L18.9604 14.6672L18.8933 14.8562L18.8371 14.9534L18.77 15.0521L18.6878 15.1562L18.5892 15.2616L18.6673 15.2534L18.7344 15.2384L18.7878 15.2219L18.8385 15.2L18.9371 15.1699L19.0782 15.1548L19.0864 15.2082V15.2603L19.0782 15.3123L19.0645 15.3575L19.0426 15.4027L19.0111 15.4479L18.9823 15.4836L18.9453 15.5219C18.8418 15.6217 18.7363 15.7195 18.6289 15.815L18.7179 15.8233C18.7837 15.8438 18.8494 15.8644 18.9166 15.8822L18.9892 15.8986L18.9015 15.9671C18.832 16.0136 18.7617 16.0588 18.6905 16.1027L18.4495 16.2383L18.3289 16.3136L18.2084 16.3972L18.0961 16.4876L18.1467 16.4945L18.2166 16.5246L18.2467 16.5328L18.2755 16.5479L18.3002 16.5547L18.3221 16.5479L18.1728 16.6314C18.0794 16.6753 17.9867 16.7205 17.8947 16.767L17.7796 16.8355L17.7577 16.8588L17.744 16.8821L17.7276 16.904L17.7331 16.9342L17.7495 16.9574L17.7783 16.9794L17.8057 17.004L17.7947 17.0328L17.7783 17.0574L17.7495 17.0794L17.7221 17.1026L17.6495 17.1383L17.5618 17.1766L17.3906 17.2369L17.2838 17.2903L17.4331 17.4396L17.3797 17.4917L17.329 17.53L17.2838 17.5533L17.2304 17.5752L17.1262 17.5903H16.9783L16.9948 17.6588L17.0167 17.7259L17.0482 17.8779C16.9548 17.9505 16.8593 18.0204 16.7619 18.0875L16.5879 18.1998L16.3948 18.3122L16.2797 18.3656L16.1674 18.4176C16.0406 18.4669 15.9122 18.5121 15.7825 18.5532L15.4907 18.6149L15.3305 18.6382C15.5044 18.6436 15.6784 18.6464 15.8523 18.645L16.2797 18.5998L16.4674 18.5628L16.6331 18.5176C16.7427 18.4806 16.8496 18.4395 16.9564 18.3971L17.1646 18.3012L17.3701 18.1875L17.5632 18.0656L17.7687 17.9464L17.6454 17.8862L17.5276 17.8492L17.4714 17.8231C17.429 17.8026 17.3865 17.7821 17.3427 17.7642L17.2728 17.7259L17.3317 17.6821L17.4043 17.6519L17.4824 17.6232C17.5728 17.6012 17.6646 17.5807 17.755 17.5615C17.8728 17.5492 17.9906 17.5341 18.1084 17.5177L18.2577 17.5026L18.3728 17.4738L18.4029 17.4574L18.4248 17.4341L18.4193 17.4259L18.4029 17.4108L18.381 17.4026L18.3522 17.3889L18.2686 17.3725L18.1618 17.3574L18.0577 17.3492L17.9536 17.3341L17.8605 17.3108L17.8043 17.2876L18.5399 17.1232L18.6686 17.0848C18.7248 17.0643 18.7796 17.041 18.8344 17.0177L18.907 16.9711L18.9385 16.9424L18.9303 16.9355L18.9166 16.9191L18.8467 16.904L18.7508 16.8958H18.6358C18.5577 16.8903 18.481 16.8848 18.4029 16.8821L18.307 16.8657L18.2454 16.8506L18.3522 16.8068C18.5111 16.7575 18.6727 16.7122 18.8344 16.6698C18.9261 16.6383 19.0193 16.6068 19.1124 16.5794L19.2549 16.5191L19.322 16.4821L19.3837 16.4451L19.4056 16.4219L19.4289 16.3917L19.4508 16.3698L19.459 16.3465L19.4508 16.3232L19.4289 16.3068L19.4056 16.3013H19.1974L19.0987 16.3068H18.9645L18.9248 16.3013L18.8988 16.2849L18.8659 16.2698C19.1398 16.089 19.4165 15.9096 19.6946 15.7342L19.911 15.5835C19.9694 15.5352 20.0265 15.4855 20.0822 15.4342L20.1494 15.3589L20.211 15.2836L20.2562 15.2014L20.2932 15.1192L20.3151 15.0274V14.9302H20.2644L20.211 14.9384L20.0932 14.9822C19.9889 15.0478 19.8829 15.1109 19.7754 15.1712L19.7165 15.2096L19.6467 15.2384L19.5795 15.2616L19.5179 15.2767L19.459 15.2849H19.3891L19.3302 15.2616L19.5124 15.126C19.659 15.0014 19.8042 14.8754 19.948 14.7493C20.107 14.5974 20.2623 14.4417 20.4137 14.2823L20.6302 14.0412C20.6945 13.9562 20.7603 13.8741 20.8274 13.7919C20.8808 13.7152 20.9343 13.6371 20.9849 13.559L21.0014 13.5302L21.0069 13.507L21.0014 13.4754L20.9932 13.4535L20.9849 13.4289L20.963 13.4138L20.9397 13.3905L20.9178 13.3823L20.889 13.3686L20.8562 13.3604H20.7973L20.7685 13.3686L20.7288 13.3741L20.7069 13.3987L20.6754 13.422C20.5219 13.5754 20.3699 13.7316 20.2206 13.8891L20.0384 14.0617C19.9188 14.166 19.7982 14.2692 19.6768 14.3713C19.6196 14.41 19.5616 14.4475 19.5028 14.4836L19.3371 14.5672L19.3878 14.522C19.4426 14.4699 19.496 14.4179 19.548 14.3644C19.7412 14.1425 19.9261 13.9124 20.1042 13.6795L20.4521 13.1905L20.5452 13.0262L20.6384 12.8755L20.7137 12.7385L20.7726 12.6097L20.8096 12.5056L20.8178 12.4687V12.4084L20.8096 12.3851L20.7822 12.3399L20.7658 12.3248L20.7411 12.318L20.6986 12.2933L20.6425 12.2783H20.5398L20.511 12.2865L20.4891 12.2933L20.4576 12.3098L20.4357 12.3317L20.374 12.3851C20.3065 12.4664 20.2411 12.5495 20.1781 12.6344C20.0275 12.87 19.8686 13.1001 19.7042 13.3261L19.5138 13.5522L19.4179 13.6508L19.3138 13.7412L19.448 13.4905L19.659 13.0481L19.796 12.7248L19.8549 12.5591L19.959 12.2194C19.985 12.1098 20.0083 12.0002 20.0288 11.8892C20.0384 11.7865 20.0466 11.6838 20.0535 11.5797L20.0425 11.5043L20.037 11.4372L20.0288 11.3673L20.0069 11.2797L19.9905 11.255L19.9535 11.218L19.9028 11.1961L19.8466 11.1797H19.796L19.748 11.1879L19.7343 11.1961L19.7124 11.2016L19.7042 11.218C19.5686 11.6454 19.4658 12.081 19.348 12.5125C19.3042 12.633 19.2604 12.7536 19.2138 12.8741L19.1015 13.0919L19.0316 13.1892L19.0768 12.9727C19.0987 12.8467 19.1179 12.7221 19.1357 12.596L19.1672 12.2865L19.1754 12.1577C19.1713 12.0923 19.1659 12.027 19.159 11.9618L19.1453 11.8865L19.1234 11.8262L19.0919 11.781L19.0755 11.766L19.0303 11.7509L19.0083 11.7427H18.9837L18.9618 11.7509L18.9001 11.766L18.8412 11.7961C18.7946 12.029 18.7385 12.2604 18.6755 12.4892C18.5858 12.7777 18.4806 13.0612 18.3604 13.3385C18.2792 13.5088 18.1934 13.6769 18.1029 13.8426L17.9372 14.1288L17.7577 14.3987C17.6374 14.5672 17.5127 14.7325 17.3838 14.8945C17.2577 15.037 17.129 15.1767 16.9989 15.3164C16.8632 15.4493 16.7249 15.5808 16.5838 15.7096C16.4386 15.8301 16.292 15.9465 16.1427 16.0616C15.9606 16.1933 15.7743 16.3189 15.5839 16.4383L15.2524 16.6328L14.725 16.8753L14.1826 17.0698L13.7333 17.2067L13.2676 17.3108L13.0347 17.3492L12.558 17.4095L12.3169 17.4245L12.2936 17.4328L12.2704 17.4396L12.2252 17.4643L12.1745 17.4999C12.1155 17.5513 12.0575 17.6038 12.0005 17.6574L11.88 17.7793L11.443 18.267L11.2773 18.4327L11.0828 18.582L11.006 18.6341L10.9307 18.6806L10.7663 18.756C10.5116 18.8601 10.2527 18.9546 9.99652 19.0573L9.9294 19.0943L9.86913 19.1258L9.82529 19.1546L9.74174 19.2381L9.71845 19.2751L9.70201 19.3121L9.69653 19.3655V19.4039" fill="#FFCC4D"/>
<path d="M12.4594 19.742L12.5855 19.7584L12.6471 19.7817L12.6608 19.7886V19.7968H12.6471L12.6307 19.8036L12.5101 19.8269H12.4142L12.0992 19.8036L11.3006 19.7886C11.0897 19.7913 10.8787 19.7968 10.6678 19.8036C10.4815 19.8173 10.2965 19.8324 10.1103 19.8488L9.96643 19.8721L9.83904 19.9009C9.8089 19.9119 9.78014 19.9228 9.75 19.931L9.71165 19.9475L9.68151 19.9708L9.69521 19.894L9.72809 19.8173L9.62261 19.8475L9.53221 19.8927L9.49659 19.916L9.46509 19.9461L9.4418 19.9817L9.43632 20.0201L9.4144 19.968L9.39797 19.9214C9.39393 19.8888 9.38845 19.8563 9.38153 19.8242C9.38975 19.7845 9.39797 19.7447 9.40344 19.705L9.4281 19.6667L9.4418 19.6365L9.4733 19.6009L9.53358 19.5406L9.61576 19.4872L9.70891 19.4352C9.75799 19.4639 9.81044 19.4864 9.86506 19.5023C9.91896 19.5071 9.97328 19.502 10.0253 19.4872C10.1089 19.5612 10.3253 19.5461 10.3554 19.4119C10.3671 19.3623 10.3671 19.3108 10.3554 19.2612L10.4459 19.2544L10.5513 19.2379L10.7842 19.1776L10.9061 19.1544L11.0184 19.1256L11.1239 19.1105L11.2129 19.1023L11.1759 19.1338L10.9801 19.2831L10.9061 19.3352L11.002 19.3598L11.0855 19.3749L10.9075 19.5776L10.8609 19.6379L10.9198 19.6612L10.9801 19.6776L11.0486 19.6927H11.1842L11.3184 19.6626L11.3718 19.631L11.4335 19.6626L11.4937 19.6858C11.5321 19.6968 11.5718 19.7078 11.6115 19.716C11.7047 19.7256 11.7978 19.7365 11.8923 19.7447H12.4594M11.7732 17.4545L11.7061 17.5901L11.6293 17.764C11.5899 17.8349 11.5529 17.9071 11.5184 17.9805L11.48 18.0188L11.391 17.9435L11.2924 17.875L11.1869 17.8216L11.076 17.7777L10.8335 17.7161L10.7143 17.6942C10.584 17.6791 10.4534 17.6667 10.3226 17.6572C10.1493 17.6545 9.97617 17.6462 9.80342 17.6325L9.56234 17.6038L9.42673 17.5805L9.29934 17.5517L9.1651 17.5051L9.05141 17.4462L8.96785 17.3914L8.79526 17.2641C8.54322 17.0271 8.29392 16.7874 8.03503 16.5559L7.88572 16.4518L7.81723 16.4216L7.74601 16.3997L7.61861 16.371C7.54422 16.3444 7.46933 16.3193 7.39397 16.2956C7.32384 16.2618 7.25306 16.2294 7.18165 16.1984C7.05743 16.1214 6.93719 16.0382 6.8214 15.9491L6.74606 15.8792L6.59676 15.7299L6.45293 15.5724C6.21595 15.2833 5.99268 14.9847 5.76119 14.6916C5.6505 14.5741 5.5377 14.4585 5.42285 14.345L5.32559 14.256L5.22697 14.1738L5.01054 14.0163L4.98863 14.0231L4.96397 14.0464L4.94068 14.0766C4.92699 14.1108 4.91603 14.1464 4.90507 14.182L4.89685 14.2122L4.84206 14.1875L4.79686 14.1642L4.74207 14.1409L4.69686 14.1259H4.59961L4.54619 14.1409L4.49414 14.1642C4.53523 14.2163 4.57495 14.2683 4.61331 14.3218L4.68043 14.4272L4.80234 14.6601L4.84617 14.7738L4.86261 14.8341L4.87904 14.8793L4.88589 14.9313V14.9751H4.48044L4.53934 15.0656C4.58454 15.1272 4.63248 15.1875 4.68043 15.2464L4.92973 15.4957L5.01328 15.5628L5.08999 15.6162C5.02482 15.623 4.95951 15.6285 4.89411 15.6326L4.69686 15.6546L4.76398 15.7162C4.82288 15.7573 4.88041 15.7998 4.93795 15.8436L5.0352 15.9107L5.13383 15.971L5.23108 16.0244L5.32148 16.0545L5.40504 16.0765L5.47216 16.0915L5.49408 16.0997L5.51052 16.1162L5.51599 16.123V16.1518L5.49408 16.2134L5.4886 16.2573L5.47901 16.2874V16.3093L5.4886 16.3477L5.49408 16.3778L5.51052 16.3915L5.53243 16.4079L5.5612 16.423L5.59955 16.4312L5.67626 16.4614L5.71324 16.4751L5.74338 16.4983L5.75023 16.5066V16.5216L5.74338 16.5299L5.68311 16.5737L5.65297 16.6038L5.62284 16.6408V16.6723L5.61599 16.7024L5.63106 16.7833L5.89406 16.8737L5.95433 16.8874L6.0146 16.912L6.0598 16.9353L6.09815 16.9586L5.84885 17.1545L5.91597 17.2147L5.99953 17.2599L6.105 17.312C6.18034 17.3394 6.25568 17.3641 6.33239 17.3887L6.44471 17.4106L6.54333 17.4339H6.63237L6.54881 17.4942L6.44334 17.5613L6.33102 17.6229L6.24746 17.6832L6.3228 17.7353C6.55155 17.8531 6.78579 17.9626 7.02413 18.0599C7.44054 18.2298 7.86655 18.3777 8.29529 18.5106C8.39117 18.5338 8.48569 18.5585 8.5802 18.5859L8.70075 18.6092L8.45829 18.5859C8.30758 18.5664 8.15733 18.5436 8.00763 18.5174L7.79669 18.4722L7.38164 18.353L7.18713 18.2845C6.66661 18.0818 6.15842 17.849 5.63654 17.6517L5.67489 17.6298L5.78036 17.5914L5.84748 17.5764C5.93926 17.549 6.02829 17.5188 6.1187 17.486C5.93935 17.4588 5.76076 17.4268 5.58311 17.3901C5.49106 17.3602 5.39835 17.3323 5.30505 17.3065L5.25163 17.2832L5.20642 17.2599L5.16944 17.2353L5.14478 17.2134V17.2065L5.153 17.1983L5.17629 17.1901L5.19821 17.175L5.25848 17.1517L5.52147 17.075L5.67352 17.023C5.45572 16.9819 5.23656 16.9449 5.01739 16.9107L4.91192 16.886L4.82836 16.8572L4.79823 16.8408L4.76946 16.8175L4.74481 16.8038L4.72974 16.7792L4.75302 16.7641L4.82014 16.749C4.89 16.7381 4.96123 16.7257 5.03109 16.712L5.15163 16.697C5.22012 16.6778 5.28724 16.6572 5.35436 16.6353L5.38587 16.6134L5.416 16.5888L5.29683 16.5436L5.22012 16.5299L5.14478 16.5134L4.7996 16.4682L4.70919 16.4463L4.62563 16.4299L4.45989 16.371L4.38318 16.3326L4.32154 16.2888L4.26127 16.2354L4.21607 16.1682L4.23251 16.16L4.26127 16.1518H4.29963L4.3599 16.16L4.64618 16.1751L4.8133 16.1915H5.02287L5.08177 16.1833L5.12835 16.1682L5.15848 16.1518C5.01676 16.0941 4.87611 16.0338 4.73659 15.971C4.64425 15.9241 4.55109 15.8789 4.45715 15.8354L4.17223 15.6861L4.03663 15.6025C3.9531 15.5435 3.87044 15.4832 3.7887 15.4217L3.68322 15.3313L3.63665 15.2792L3.59008 15.234L3.56131 15.1888L3.52981 15.1354L3.49967 15.0916L3.48323 15.0395L3.4709 14.9423H3.52159L3.58186 14.9491L3.64213 14.9738L3.7024 14.9957L3.82157 15.071L3.95718 15.1464L4.01745 15.1847L4.08457 15.2203L4.15169 15.2505L4.21196 15.2738L4.27908 15.2902L4.33935 15.297H4.40784L4.46674 15.2738L4.28867 15.1368C4.14114 15.0143 3.99547 14.8897 3.8517 14.7628C3.6133 14.5358 3.38435 14.2991 3.16544 14.0533L3.06956 13.9259L2.97093 13.8054C2.91687 13.728 2.8639 13.6499 2.81204 13.5711L2.79834 13.541V13.4889L2.80519 13.4656L2.81204 13.4437L2.83532 13.4287L2.85724 13.4054L2.8819 13.3889L2.91066 13.3807L2.9408 13.3752H3.00107L3.03805 13.3807L3.07093 13.3889L3.09969 13.4122C3.2627 13.5739 3.42296 13.7369 3.58049 13.9026C3.75445 14.0697 3.93526 14.2314 4.12292 14.3848L4.29552 14.4957L4.38455 14.5423L4.46811 14.5711L4.40921 14.5341L4.25168 14.3766C4.05854 14.1546 3.87499 13.9245 3.69418 13.6917C3.61455 13.5823 3.53646 13.4718 3.45995 13.3602C3.39171 13.2511 3.32138 13.1433 3.249 13.0369C3.19163 12.9427 3.13636 12.8473 3.08326 12.7506C3.05271 12.6724 3.02074 12.5948 2.98737 12.5178L2.97778 12.4808V12.4191L2.98737 12.3972L3.01614 12.352L3.03257 12.3356L3.05586 12.3219L3.15312 12.2904H3.25859L3.28872 12.2972L3.31064 12.3054L3.34078 12.3219L3.42433 12.3972L3.62021 12.6465C3.77363 12.8821 3.93526 13.1122 4.10238 13.3383L4.28045 13.5643L4.37907 13.6615L4.48455 13.7519C4.36457 13.5243 4.24948 13.2941 4.13936 13.0616C4.09275 12.9544 4.04754 12.8466 4.00375 12.7383L3.94348 12.5725C3.91165 12.4583 3.87648 12.345 3.83801 12.2328L3.80102 12.0671L3.77363 11.8986L3.75719 11.7411L3.75034 11.5918L3.75719 11.5164L3.76678 11.4479L3.77363 11.3795L3.7887 11.3123L3.80376 11.2877L3.81198 11.2658L3.8339 11.2411L3.84897 11.2274L3.90102 11.2041L3.95444 11.1904H4.00649L4.05169 11.1986L4.07361 11.2041L4.09005 11.2123L4.09827 11.2288L4.10649 11.2507C4.23525 11.6712 4.34072 12.0986 4.45167 12.5246C4.4955 12.6438 4.54071 12.7616 4.58865 12.878L4.6407 12.9903L4.70097 13.0958L4.76809 13.2013L4.72426 12.9821C4.70706 12.857 4.68696 12.7323 4.66399 12.6082C4.64894 12.4627 4.63661 12.3171 4.627 12.1712L4.64207 11.9753L4.65714 11.8986L4.68043 11.8397L4.71056 11.7945L4.72563 11.7781L4.74754 11.763L4.76946 11.7562H4.83795L4.89959 11.7781L4.95849 11.8082L5.06397 12.2821C5.10232 12.426 5.14478 12.5698 5.19136 12.7109C5.26806 12.9259 5.35162 13.1396 5.44066 13.3506L5.54613 13.5684L5.69681 13.856L5.86118 14.1409L6.04336 14.4122L6.23787 14.682L6.42005 14.908C6.54607 15.0505 6.67346 15.1916 6.80359 15.3299C6.9392 15.4628 7.07755 15.5929 7.21864 15.7203L7.43643 15.9025C7.63642 16.0586 7.84189 16.2066 8.05421 16.3463C8.21995 16.4449 8.38844 16.5408 8.55829 16.6326L9.07607 16.8819C9.33907 16.986 9.6048 17.0819 9.87328 17.1668C10.1363 17.2367 10.4034 17.2969 10.6719 17.3476C11.0321 17.4051 11.402 17.4394 11.7732 17.4545Z" fill="#FFCC4D"/>
</svg>
