<svg width="197" height="59" viewBox="0 0 197 59" fill="none" xmlns="http://www.w3.org/2000/svg">
<g clip-path="url(#clip0_14_4192)">
<path d="M0 14.9229L23.8287 0.17334L47.6575 14.9229L23.8287 29.6724L0 14.9229Z" fill="#E3EFFB"/>
<path d="M23.8287 29.6724L47.6575 14.9229L23.8287 0.17334L0 14.9229L23.8287 29.6724ZM23.8287 29.6724L0.000507701 14.9219M47.6612 14.9219L23.833 29.6724" stroke="white" stroke-width="3" stroke-linecap="round" stroke-linejoin="round"/>
<path d="M47.6654 14.7485L23.8372 29.499L23.8351 59L47.6634 44.2495L47.6654 14.7485Z" fill="#0B6BCB"/>
<path d="M47.6617 14.7495L23.833 29.499L23.8351 59M23.8351 59L23.8372 29.499L47.6654 14.7485L47.6634 44.2495L23.8351 59Z" stroke="white" stroke-width="3" stroke-linecap="round" stroke-linejoin="round"/>
<path d="M0.000507701 14.7485L23.8287 29.499L23.8308 59L0.00258669 44.2495L0.000507701 14.7485Z" fill="#97C3F0"/>
<path d="M0 14.7495L23.8287 29.499M23.8287 29.499L0.000507701 14.7485L0.00258669 44.2495L23.8308 59M23.8287 29.499L23.8308 59M23.8308 59L23.833 29.499" stroke="white" stroke-width="3" stroke-linecap="round" stroke-linejoin="round"/>
<ellipse cx="4.99554" cy="10.3096" rx="4.99554" ry="10.3096" transform="matrix(4.0768e-08 1 0.850229 -0.526413 26.9834 37.3057)" fill="white"/>
<ellipse cx="3.36217" cy="3.19389" rx="3.36217" ry="3.19389" transform="matrix(4.0768e-08 1 0.850229 -0.526413 33.0332 35.1934)" fill="#0B6BCB"/>
<path d="M183.236 32.5153C183.236 31.2032 183.421 30.0526 183.789 29.0637C184.177 28.0749 184.683 27.2571 185.31 26.6106C185.937 25.945 186.656 25.4505 187.467 25.1272C188.278 24.7849 189.108 24.6138 189.956 24.6138C191.947 24.6138 193.495 25.2508 194.601 26.525C195.726 27.7991 196.288 29.7008 196.288 32.2301C196.288 32.4202 196.279 32.6389 196.26 32.8862C196.26 33.1144 196.251 33.3236 196.233 33.5137H186.693C186.785 34.7118 187.191 35.6436 187.91 36.3092C188.647 36.9558 189.707 37.2791 191.09 37.2791C191.901 37.2791 192.638 37.203 193.302 37.0509C193.984 36.8987 194.518 36.7371 194.906 36.5659L195.348 39.39C195.164 39.4851 194.906 39.5896 194.574 39.7038C194.26 39.7988 193.892 39.8844 193.468 39.9605C193.062 40.0556 192.62 40.1316 192.14 40.1887C191.661 40.2457 191.172 40.2743 190.675 40.2743C189.403 40.2743 188.297 40.0841 187.356 39.7038C186.416 39.3044 185.642 38.7624 185.034 38.0778C184.425 37.3742 183.974 36.5564 183.679 35.6246C183.384 34.6738 183.236 33.6373 183.236 32.5153ZM192.942 30.975C192.942 30.4995 192.878 30.0526 192.749 29.6343C192.62 29.1969 192.426 28.826 192.168 28.5218C191.928 28.1985 191.624 27.9513 191.255 27.7801C190.905 27.5899 190.481 27.4948 189.983 27.4948C189.467 27.4948 189.016 27.5994 188.628 27.8086C188.241 27.9988 187.91 28.2555 187.633 28.5788C187.375 28.9021 187.172 29.2729 187.025 29.6913C186.877 30.1097 186.776 30.5376 186.72 30.975H192.942Z" fill="black" fill-opacity="0.87"/>
<path d="M174.814 37.4217C175.699 37.4217 176.345 37.3171 176.75 37.1079C177.156 36.8797 177.358 36.4994 177.358 35.9669C177.358 35.4725 177.137 35.0636 176.695 34.7403C176.271 34.417 175.561 34.0652 174.566 33.6849C173.957 33.4567 173.395 33.219 172.879 32.9717C172.381 32.7055 171.948 32.4012 171.579 32.0589C171.21 31.7166 170.916 31.3077 170.694 30.8323C170.492 30.3379 170.39 29.7388 170.39 29.0352C170.39 27.666 170.879 26.5915 171.856 25.8118C172.833 25.0131 174.16 24.6138 175.838 24.6138C176.686 24.6138 177.497 24.6993 178.271 24.8705C179.045 25.0226 179.626 25.1748 180.013 25.3269L179.405 28.1224C179.036 27.9513 178.566 27.7991 177.994 27.666C177.423 27.5139 176.759 27.4378 176.003 27.4378C175.321 27.4378 174.768 27.5614 174.344 27.8086C173.92 28.0368 173.708 28.3981 173.708 28.8926C173.708 29.1398 173.745 29.3585 173.819 29.5487C173.911 29.7388 174.059 29.9195 174.261 30.0907C174.464 30.2428 174.731 30.4044 175.063 30.5756C175.395 30.7277 175.801 30.8894 176.28 31.0605C177.073 31.3648 177.746 31.6691 178.299 31.9733C178.852 32.2586 179.303 32.5914 179.654 32.9717C180.022 33.3331 180.29 33.7514 180.455 34.2269C180.621 34.7023 180.704 35.2728 180.704 35.9384C180.704 37.3647 180.188 38.4486 179.156 39.1903C178.142 39.9129 176.686 40.2743 174.787 40.2743C173.515 40.2743 172.492 40.1602 171.717 39.932C170.943 39.7228 170.399 39.5516 170.086 39.4185L170.667 36.5374C171.164 36.7466 171.754 36.9463 172.436 37.1365C173.137 37.3266 173.93 37.4217 174.814 37.4217Z" fill="black" fill-opacity="0.87"/>
<path d="M166.717 39.9036H163.371V24.9848H166.717V39.9036ZM167.076 20.6204C167.076 21.2669 166.873 21.7804 166.468 22.1607C166.062 22.5411 165.583 22.7313 165.03 22.7313C164.458 22.7313 163.97 22.5411 163.564 22.1607C163.159 21.7804 162.956 21.2669 162.956 20.6204C162.956 19.9548 163.159 19.4318 163.564 19.0515C163.97 18.6711 164.458 18.481 165.03 18.481C165.583 18.481 166.062 18.6711 166.468 19.0515C166.873 19.4318 167.076 19.9548 167.076 20.6204Z" fill="black" fill-opacity="0.87"/>
<path d="M149.628 22.3602C149.923 23.3872 150.237 24.4616 150.569 25.5836C150.9 26.6866 151.241 27.7991 151.592 28.9211C151.96 30.0241 152.32 31.1176 152.67 32.2015C153.039 33.2665 153.389 34.2744 153.721 35.2252C153.997 34.1983 154.265 33.0858 154.523 31.8878C154.781 30.6707 155.039 29.4155 155.297 28.1224C155.555 26.8102 155.804 25.479 156.044 24.1288C156.302 22.7786 156.541 21.4474 156.763 20.1353H160.357C159.712 23.7104 158.993 27.1525 158.201 30.4615C157.408 33.7514 156.523 36.8987 155.546 39.9034H152.228C150.79 36.062 149.398 31.8687 148.052 27.3237C147.37 29.6247 146.679 31.8117 145.978 33.8845C145.278 35.9574 144.577 37.9637 143.877 39.9034H140.559C139.563 36.8987 138.669 33.7514 137.876 30.4615C137.102 27.1525 136.392 23.7104 135.747 20.1353H139.48C139.701 21.4284 139.932 22.7501 140.171 24.1003C140.429 25.4505 140.688 26.7817 140.946 28.0939C141.222 29.387 141.499 30.6421 141.775 31.8592C142.052 33.0763 142.328 34.1983 142.605 35.2252C142.955 34.2554 143.305 33.238 143.656 32.173C144.024 31.089 144.384 29.9956 144.734 28.8926C145.084 27.7706 145.416 26.6581 145.729 25.5551C146.061 24.4521 146.365 23.3872 146.642 22.3602H149.628Z" fill="black" fill-opacity="0.87"/>
<path d="M134.065 28.094C133.788 27.9989 133.401 27.9038 132.903 27.8087C132.424 27.6946 131.862 27.6375 131.216 27.6375C130.848 27.6375 130.451 27.6756 130.027 27.7517C129.622 27.8277 129.336 27.8943 129.17 27.9513V39.9035H125.824V25.6978C126.469 25.4506 127.271 25.2224 128.23 25.0132C129.207 24.785 130.285 24.6709 131.465 24.6709C131.686 24.6709 131.945 24.6899 132.239 24.7279C132.534 24.747 132.829 24.785 133.124 24.8421C133.419 24.8801 133.705 24.9371 133.982 25.0132C134.258 25.0703 134.479 25.1273 134.645 25.1844L134.065 28.094Z" fill="black" fill-opacity="0.87"/>
<path d="M109.018 32.5153C109.018 31.2032 109.202 30.0526 109.571 29.0637C109.958 28.0749 110.465 27.2571 111.091 26.6106C111.718 25.945 112.437 25.4505 113.248 25.1272C114.059 24.7849 114.889 24.6138 115.737 24.6138C117.728 24.6138 119.277 25.2508 120.383 26.525C121.507 27.7991 122.069 29.7008 122.069 32.2301C122.069 32.4202 122.06 32.6389 122.042 32.8862C122.042 33.1144 122.032 33.3236 122.014 33.5137H112.474C112.566 34.7118 112.972 35.6436 113.691 36.3092C114.428 36.9558 115.488 37.2791 116.871 37.2791C117.682 37.2791 118.419 37.203 119.083 37.0509C119.765 36.8987 120.3 36.7371 120.687 36.5659L121.129 39.39C120.945 39.4851 120.687 39.5896 120.355 39.7038C120.042 39.7988 119.673 39.8844 119.249 39.9605C118.843 40.0556 118.401 40.1316 117.922 40.1887C117.442 40.2457 116.954 40.2743 116.456 40.2743C115.184 40.2743 114.078 40.0841 113.138 39.7038C112.198 39.3044 111.423 38.7624 110.815 38.0778C110.207 37.3742 109.755 36.5564 109.46 35.6246C109.165 34.6738 109.018 33.6373 109.018 32.5153ZM118.723 30.975C118.723 30.4995 118.659 30.0526 118.53 29.6343C118.401 29.1969 118.207 28.826 117.949 28.5218C117.71 28.1985 117.405 27.9513 117.037 27.7801C116.686 27.5899 116.262 27.4948 115.765 27.4948C115.249 27.4948 114.797 27.5994 114.41 27.8086C114.023 27.9988 113.691 28.2555 113.414 28.5788C113.156 28.9021 112.953 29.2729 112.806 29.6913C112.658 30.1097 112.557 30.5376 112.502 30.975H118.723Z" fill="black" fill-opacity="0.87"/>
<path d="M102.736 32.5154C102.736 30.975 102.395 29.777 101.713 28.9212C101.049 28.0654 99.9707 27.6375 98.4775 27.6375C98.1641 27.6375 97.8323 27.6566 97.482 27.6946C97.1502 27.7136 96.8184 27.7707 96.4865 27.8658V36.3949C96.7815 36.6041 97.1686 36.8037 97.6479 36.9939C98.1457 37.1651 98.671 37.2506 99.2241 37.2506C100.441 37.2506 101.326 36.8228 101.879 35.967C102.45 35.1112 102.736 33.9607 102.736 32.5154ZM106.165 32.4584C106.165 33.5994 106.017 34.6453 105.722 35.5962C105.446 36.547 105.04 37.3647 104.506 38.0494C103.971 38.734 103.298 39.2664 102.487 39.6468C101.694 40.0271 100.791 40.2173 99.7771 40.2173C99.095 40.2173 98.4683 40.1317 97.8968 39.9606C97.3253 39.7894 96.8552 39.5992 96.4865 39.39V45.1807H93.1406V25.4696C93.8227 25.2794 94.6615 25.0988 95.657 24.9276C96.6524 24.7565 97.7032 24.6709 98.8093 24.6709C99.9523 24.6709 100.975 24.8516 101.879 25.2129C102.782 25.5742 103.547 26.0972 104.174 26.7818C104.819 27.4474 105.308 28.2651 105.639 29.235C105.99 30.1858 106.165 31.2603 106.165 32.4584Z" fill="black" fill-opacity="0.87"/>
<path d="M88.6742 39.4473C88.029 39.6184 87.1902 39.7896 86.1578 39.9607C85.1255 40.1509 83.9917 40.246 82.7566 40.246C81.5952 40.246 80.6182 40.0748 79.8255 39.7325C79.0512 39.3902 78.4245 38.9148 77.9452 38.3063C77.4843 37.6977 77.1525 36.9751 76.9497 36.1383C76.7469 35.2826 76.6455 34.3507 76.6455 33.3428V24.9849H79.9914V32.8008C79.9914 34.3983 80.2126 35.5393 80.6551 36.2239C81.1159 36.9085 81.9086 37.2508 83.0331 37.2508C83.4387 37.2508 83.8627 37.2318 84.3051 37.1938C84.766 37.1557 85.1071 37.1082 85.3283 37.0511V24.9849H88.6742V39.4473Z" fill="black" fill-opacity="0.87"/>
<path d="M66.4822 37.2224C67.7358 37.2224 68.6483 37.0037 69.2198 36.5663C69.7912 36.1289 70.077 35.5108 70.077 34.7121C70.077 34.2367 69.9756 33.8278 69.7728 33.4855C69.5885 33.1432 69.3119 32.839 68.9432 32.5727C68.593 32.2875 68.1598 32.0307 67.6436 31.8025C67.1274 31.5553 66.5375 31.3176 65.8739 31.0894C65.2102 30.8422 64.565 30.5759 63.9382 30.2907C63.3299 29.9864 62.786 29.6156 62.3067 29.1782C61.8459 28.7408 61.468 28.2178 61.173 27.6093C60.8965 27.0007 60.7582 26.2686 60.7582 25.4128C60.7582 23.6252 61.3574 22.2275 62.5556 21.2196C63.7539 20.1927 65.3853 19.6792 67.45 19.6792C68.6483 19.6792 69.7083 19.8218 70.63 20.1071C71.5702 20.3733 72.3076 20.6681 72.8422 20.9914L71.7638 23.901C71.137 23.5396 70.4457 23.2639 69.6899 23.0737C68.9525 22.8836 68.1874 22.7885 67.3947 22.7885C66.4546 22.7885 65.7172 22.9882 65.1826 23.3875C64.6664 23.7869 64.4083 24.3479 64.4083 25.0705C64.4083 25.5079 64.4913 25.8882 64.6572 26.2115C64.8415 26.5158 65.0904 26.7916 65.4038 27.0388C65.7356 27.286 66.1135 27.5142 66.5375 27.7234C66.9799 27.9326 67.4592 28.1323 67.9754 28.3224C68.8787 28.6647 69.6806 29.0165 70.3812 29.3779C71.1001 29.7202 71.6992 30.1385 72.1785 30.633C72.6763 31.1084 73.0542 31.6789 73.3123 32.3445C73.5704 32.9911 73.6994 33.7803 73.6994 34.7121C73.6994 36.4997 73.0818 37.888 71.8467 38.8769C70.63 39.8467 68.8419 40.3317 66.4822 40.3317C65.6895 40.3317 64.9613 40.2746 64.2977 40.1605C63.6525 40.0654 63.0718 39.9418 62.5556 39.7897C62.0579 39.6375 61.6247 39.4854 61.256 39.3333C60.8873 39.1621 60.5923 39.01 60.3711 38.8769L61.3942 35.9387C61.892 36.224 62.5648 36.5092 63.4128 36.7945C64.2608 37.0797 65.284 37.2224 66.4822 37.2224Z" fill="black" fill-opacity="0.87"/>
</g>
<defs>
<clipPath id="clip0_14_4192">
<rect width="197" height="59" fill="white"/>
</clipPath>
</defs>
</svg>
