<svg width="125" height="40" viewBox="0 0 125 40" fill="none" xmlns="http://www.w3.org/2000/svg">
<path d="M2 11.1055L16.8778 2.10583L31.7557 11.1055L16.8778 20.1053L2 11.1055Z" fill="#E3EFFB"/>
<path d="M16.8778 20.1053L31.7557 11.1055L16.8778 2.10583L2 11.1055L16.8778 20.1053ZM16.8778 20.1053L2.00032 11.1049M31.758 11.105L16.8805 20.1052" stroke="white" stroke-width="3" stroke-linecap="round" stroke-linejoin="round"/>
<path d="M31.7605 10.9991L16.883 19.9994L16.8817 38L31.7592 28.9997L31.7605 10.9991Z" fill="#0B6BCB"/>
<path d="M31.7582 10.9997L16.8804 19.9995L16.8817 38M16.8817 38L16.883 19.9994L31.7605 10.9991L31.7592 28.9997L16.8817 38Z" stroke="white" stroke-width="3" stroke-linecap="round" stroke-linejoin="round"/>
<path d="M2.00032 10.9991L16.8778 19.9995L16.8791 38L2.00162 28.9997L2.00032 10.9991Z" fill="#97C3F0"/>
<path d="M2 10.9997L16.8778 19.9995M16.8778 19.9995L2.00032 10.9991L2.00162 28.9997L16.8791 38M16.8778 19.9995L16.8791 38M16.8791 38L16.8805 19.9994" stroke="white" stroke-width="3" stroke-linecap="round" stroke-linejoin="round"/>
<ellipse cx="3.04813" cy="6.39673" rx="3.04813" ry="6.39673" transform="matrix(4.17165e-08 1 0.855575 -0.517679 18.8477 24.7628)" fill="white"/>
<ellipse cx="2.0515" cy="1.9817" rx="2.0515" ry="1.9817" transform="matrix(4.17164e-08 1 0.855575 -0.517679 22.625 23.474)" fill="#0B6BCB"/>
<path d="M116.406 21.84C116.406 21.0393 116.521 20.3373 116.752 19.7339C116.993 19.1305 117.31 18.6316 117.701 18.2371C118.092 17.8309 118.541 17.5292 119.048 17.332C119.554 17.1231 120.072 17.0187 120.602 17.0187C121.845 17.0187 122.812 17.4074 123.502 18.1848C124.204 18.9623 124.555 20.1226 124.555 21.6659C124.555 21.7819 124.55 21.9154 124.538 22.0662C124.538 22.2055 124.532 22.3331 124.521 22.4492H118.564C118.622 23.1802 118.875 23.7488 119.324 24.1549C119.784 24.5494 120.446 24.7467 121.31 24.7467C121.816 24.7467 122.276 24.7003 122.691 24.6074C123.117 24.5146 123.45 24.416 123.692 24.3115L123.968 26.0347C123.853 26.0927 123.692 26.1565 123.485 26.2261C123.289 26.2841 123.059 26.3364 122.794 26.3828C122.541 26.4408 122.265 26.4872 121.966 26.522C121.666 26.5568 121.361 26.5742 121.051 26.5742C120.256 26.5742 119.566 26.4582 118.979 26.2261C118.392 25.9824 117.908 25.6517 117.528 25.234C117.149 24.8047 116.867 24.3057 116.682 23.7372C116.498 23.157 116.406 22.5246 116.406 21.84ZM122.466 20.9001C122.466 20.61 122.426 20.3373 122.345 20.082C122.265 19.8151 122.144 19.5889 121.983 19.4032C121.833 19.206 121.643 19.0551 121.413 18.9507C121.194 18.8346 120.93 18.7766 120.619 18.7766C120.297 18.7766 120.015 18.8404 119.773 18.9681C119.531 19.0841 119.324 19.2408 119.151 19.438C118.99 19.6353 118.864 19.8616 118.772 20.1168C118.679 20.3721 118.616 20.6332 118.582 20.9001H122.466Z" fill="white"/>
<path d="M111.148 24.8337C111.701 24.8337 112.104 24.7699 112.357 24.6422C112.61 24.503 112.737 24.2709 112.737 23.946C112.737 23.6443 112.599 23.3948 112.322 23.1976C112.058 23.0003 111.615 22.7857 110.993 22.5536C110.613 22.4143 110.262 22.2693 109.94 22.1185C109.629 21.956 109.359 21.7703 109.128 21.5615C108.898 21.3526 108.714 21.1031 108.576 20.813C108.449 20.5114 108.386 20.1458 108.386 19.7165C108.386 18.8811 108.691 18.2254 109.301 17.7497C109.911 17.2624 110.74 17.0187 111.787 17.0187C112.317 17.0187 112.823 17.0709 113.306 17.1753C113.79 17.2682 114.152 17.361 114.394 17.4538L114.014 19.1595C113.784 19.0551 113.491 18.9623 113.134 18.8811C112.777 18.7882 112.363 18.7418 111.891 18.7418C111.465 18.7418 111.12 18.8172 110.855 18.9681C110.59 19.1073 110.458 19.3278 110.458 19.6295C110.458 19.7803 110.481 19.9138 110.527 20.0298C110.584 20.1458 110.676 20.2561 110.803 20.3605C110.93 20.4533 111.097 20.552 111.304 20.6564C111.511 20.7492 111.764 20.8479 112.063 20.9523C112.558 21.1379 112.978 21.3236 113.324 21.5093C113.669 21.6833 113.951 21.8864 114.17 22.1185C114.4 22.3389 114.567 22.5942 114.67 22.8843C114.774 23.1744 114.826 23.5225 114.826 23.9286C114.826 24.7989 114.504 25.4603 113.859 25.9128C113.226 26.3538 112.317 26.5742 111.131 26.5742C110.337 26.5742 109.698 26.5046 109.215 26.3654C108.731 26.2377 108.392 26.1333 108.196 26.0521L108.559 24.2941C108.869 24.4218 109.238 24.5436 109.664 24.6596C110.101 24.7757 110.596 24.8337 111.148 24.8337Z" fill="white"/>
<path d="M106.092 26.3479H104.003V17.2449H106.092V26.3479ZM106.317 14.5819C106.317 14.9764 106.19 15.2897 105.937 15.5218C105.684 15.7539 105.384 15.8699 105.039 15.8699C104.682 15.8699 104.377 15.7539 104.124 15.5218C103.871 15.2897 103.744 14.9764 103.744 14.5819C103.744 14.1758 103.871 13.8567 104.124 13.6246C104.377 13.3925 104.682 13.2765 105.039 13.2765C105.384 13.2765 105.684 13.3925 105.937 13.6246C106.19 13.8567 106.317 14.1758 106.317 14.5819Z" fill="white"/>
<path d="M95.4227 15.6436C95.6068 16.2702 95.8025 16.9258 96.0097 17.6104C96.2168 18.2834 96.4298 18.9623 96.6485 19.6469C96.8787 20.3199 97.1031 20.9871 97.3218 21.6485C97.552 22.2983 97.7707 22.9133 97.9779 23.4935C98.1505 22.8669 98.3174 22.1881 98.4786 21.457C98.6397 20.7144 98.8008 19.9486 98.962 19.1595C99.1231 18.3589 99.2785 17.5466 99.4281 16.7228C99.5893 15.8989 99.7389 15.0867 99.877 14.286H102.121C101.719 16.4675 101.27 18.5677 100.775 20.5868C100.28 22.5942 99.7274 24.5146 99.1174 26.3479H97.0456C96.1478 24.004 95.2788 21.4454 94.4385 18.6722C94.0127 20.0762 93.5811 21.4106 93.1437 22.6754C92.7063 23.9402 92.2689 25.1644 91.8315 26.3479H89.7597C89.1382 24.5146 88.58 22.5942 88.085 20.5868C87.6016 18.5677 87.1585 16.4675 86.7556 14.286H89.0864C89.2245 15.0751 89.3684 15.8815 89.518 16.7054C89.6792 17.5292 89.8403 18.3415 90.0014 19.1421C90.1741 19.9312 90.3467 20.697 90.5194 21.4396C90.692 22.1823 90.8647 22.8669 91.0373 23.4935C91.256 22.9017 91.4747 22.2809 91.6934 21.6311C91.9236 20.9697 92.1481 20.3025 92.3667 19.6295C92.5854 18.9449 92.7926 18.266 92.9883 17.593C93.1955 16.92 93.3854 16.2702 93.558 15.6436H95.4227Z" fill="white"/>
<path d="M85.7055 19.1421C85.5329 19.0841 85.2912 19.0261 84.9804 18.9681C84.6811 18.8984 84.3301 18.8636 83.9272 18.8636C83.697 18.8636 83.4496 18.8868 83.1848 18.9332C82.9316 18.9797 82.7532 19.0203 82.6496 19.0551V26.3479H80.5605V17.6801C80.9634 17.5292 81.4641 17.39 82.0626 17.2623C82.6726 17.1231 83.346 17.0535 84.0826 17.0535C84.2207 17.0535 84.3819 17.0651 84.566 17.0883C84.7502 17.0999 84.9344 17.1231 85.1185 17.1579C85.3027 17.1811 85.4811 17.2159 85.6537 17.2623C85.8264 17.2971 85.9645 17.332 86.0681 17.3668L85.7055 19.1421Z" fill="white"/>
<path d="M70.0671 21.84C70.0671 21.0393 70.1822 20.3373 70.4124 19.7339C70.6542 19.1305 70.9707 18.6316 71.362 18.2371C71.7534 17.8309 72.2022 17.5292 72.7087 17.332C73.2151 17.1231 73.7331 17.0187 74.2625 17.0187C75.5056 17.0187 76.4725 17.4074 77.1631 18.1848C77.8652 18.9623 78.2162 20.1226 78.2162 21.6659C78.2162 21.7819 78.2105 21.9154 78.199 22.0662C78.199 22.2055 78.1932 22.3331 78.1817 22.4492H72.2253C72.2828 23.1802 72.536 23.7488 72.9849 24.1549C73.4453 24.5494 74.1072 24.7467 74.9704 24.7467C75.4768 24.7467 75.9372 24.7003 76.3516 24.6074C76.7775 24.5146 77.1113 24.416 77.353 24.3115L77.6292 26.0347C77.5141 26.0927 77.353 26.1565 77.1458 26.2261C76.9501 26.2841 76.7199 26.3364 76.4552 26.3828C76.202 26.4408 75.9257 26.4872 75.6265 26.522C75.3272 26.5568 75.0222 26.5742 74.7114 26.5742C73.9172 26.5742 73.2266 26.4582 72.6396 26.2261C72.0526 25.9824 71.5692 25.6517 71.1894 25.234C70.8095 24.8047 70.5275 24.3057 70.3434 23.7372C70.1592 23.157 70.0671 22.5246 70.0671 21.84ZM76.1272 20.9001C76.1272 20.61 76.0869 20.3373 76.0063 20.082C75.9257 19.8151 75.8049 19.5889 75.6437 19.4032C75.4941 19.206 75.3042 19.0551 75.074 18.9507C74.8553 18.8346 74.5906 18.7766 74.2798 18.7766C73.9575 18.7766 73.6755 18.8404 73.4338 18.9681C73.1921 19.0841 72.9849 19.2408 72.8123 19.438C72.6511 19.6353 72.5245 19.8616 72.4324 20.1168C72.3404 20.3721 72.2771 20.6332 72.2425 20.9001H76.1272Z" fill="white"/>
<path d="M66.1445 21.8399C66.1445 20.9001 65.9316 20.169 65.5057 19.6469C65.0914 19.1247 64.418 18.8636 63.4857 18.8636C63.29 18.8636 63.0829 18.8752 62.8642 18.8984C62.657 18.91 62.4498 18.9449 62.2426 19.0029V24.2071C62.4268 24.3347 62.6685 24.4566 62.9678 24.5726C63.2785 24.677 63.6066 24.7292 63.9519 24.7292C64.7115 24.7292 65.264 24.4682 65.6093 23.946C65.9661 23.4238 66.1445 22.7218 66.1445 21.8399ZM68.2854 21.8051C68.2854 22.5014 68.1933 23.1395 68.0091 23.7197C67.8365 24.2999 67.5833 24.7989 67.2495 25.2166C66.9157 25.6343 66.4956 25.9592 65.9891 26.1913C65.4942 26.4234 64.9302 26.5394 64.2972 26.5394C63.8713 26.5394 63.48 26.4872 63.1231 26.3828C62.7663 26.2783 62.4728 26.1623 62.2426 26.0346V29.5679H60.1536V17.5408C60.5794 17.4248 61.1031 17.3145 61.7247 17.2101C62.3462 17.1057 63.0023 17.0535 63.6929 17.0535C64.4065 17.0535 65.0453 17.1637 65.6093 17.3842C66.1733 17.6046 66.651 17.9237 67.0423 18.3415C67.4452 18.7476 67.7502 19.2465 67.9573 19.8383C68.176 20.4185 68.2854 21.0741 68.2854 21.8051Z" fill="white"/>
<path d="M57.365 26.0694C56.9622 26.1738 56.4385 26.2783 55.7939 26.3827C55.1493 26.4987 54.4415 26.5568 53.6703 26.5568C52.9452 26.5568 52.3351 26.4523 51.8402 26.2435C51.3568 26.0346 50.9655 25.7445 50.6662 25.3732C50.3784 25.0019 50.1713 24.5609 50.0447 24.0504C49.918 23.5282 49.8547 22.9596 49.8547 22.3446V17.2449H51.9438V22.0139C51.9438 22.9886 52.0819 23.6849 52.3582 24.1026C52.6459 24.5203 53.1408 24.7292 53.843 24.7292C54.0962 24.7292 54.3609 24.7176 54.6371 24.6944C54.9249 24.6712 55.1378 24.6422 55.276 24.6073V17.2449H57.365V26.0694Z" fill="white"/>
<path d="M43.5092 24.7118C44.2919 24.7118 44.8616 24.5783 45.2184 24.3114C45.5752 24.0445 45.7536 23.6674 45.7536 23.1801C45.7536 22.89 45.6903 22.6405 45.5637 22.4317C45.4486 22.2228 45.276 22.0371 45.0458 21.8747C44.8271 21.7006 44.5566 21.544 44.2343 21.4047C43.912 21.2539 43.5437 21.1088 43.1293 20.9696C42.715 20.8188 42.3121 20.6563 41.9208 20.4822C41.541 20.2966 41.2014 20.0703 40.9022 19.8034C40.6144 19.5366 40.3784 19.2175 40.1943 18.8461C40.0216 18.4748 39.9353 18.0281 39.9353 17.5059C39.9353 16.4152 40.3094 15.5623 41.0575 14.9473C41.8057 14.3207 42.8243 14.0074 44.1134 14.0074C44.8616 14.0074 45.5234 14.0945 46.0989 14.2685C46.6859 14.431 47.1463 14.6108 47.4801 14.8081L46.8068 16.5834C46.4154 16.363 45.9838 16.1947 45.5119 16.0787C45.0515 15.9627 44.5738 15.9046 44.0789 15.9046C43.4919 15.9046 43.0315 16.0265 42.6977 16.2701C42.3754 16.5138 42.2143 16.8561 42.2143 17.2971C42.2143 17.5639 42.2661 17.796 42.3697 17.9933C42.4848 18.1789 42.6402 18.3472 42.8358 18.498C43.043 18.6489 43.279 18.7881 43.5437 18.9158C43.8199 19.0434 44.1192 19.1652 44.4415 19.2813C45.0055 19.4901 45.5062 19.7048 45.9435 19.9253C46.3924 20.1341 46.7665 20.3894 47.0658 20.6911C47.3765 20.9812 47.6125 21.3293 47.7736 21.7354C47.9348 22.13 48.0153 22.6115 48.0153 23.1801C48.0153 24.2708 47.6298 25.1179 46.8586 25.7213C46.0989 26.3131 44.9825 26.6089 43.5092 26.6089C43.0142 26.6089 42.5596 26.5741 42.1452 26.5045C41.7424 26.4465 41.3798 26.3711 41.0575 26.2782C40.7468 26.1854 40.4763 26.0926 40.2461 25.9998C40.0159 25.8953 39.8317 25.8025 39.6936 25.7213L40.3324 23.9285C40.6432 24.1026 41.0633 24.2766 41.5928 24.4507C42.1222 24.6247 42.761 24.7118 43.5092 24.7118Z" fill="white"/>
</svg>
